<svg width="504" height="145" viewBox="0 0 504 145" fill="none" xmlns="http://www.w3.org/2000/svg">
<path d="M15.47 2.93L15.054 5.244H10.244L7.462 21H4.498L7.28 5.244H2.444L2.86 2.93H15.47ZM25.2578 6.44C26.6964 6.44 27.8491 6.84733 28.7158 7.662C29.5824 8.45933 30.0158 9.60333 30.0158 11.094C30.0158 11.4927 29.9724 11.978 29.8858 12.55L28.3778 21H25.4398L26.8698 12.992C26.9391 12.5067 26.9738 12.16 26.9738 11.952C26.9738 10.9987 26.7051 10.2707 26.1678 9.768C25.6478 9.26533 24.9198 9.014 23.9838 9.014C22.8571 9.014 21.9038 9.36067 21.1238 10.054C20.3611 10.73 19.8758 11.7093 19.6678 12.992V12.94L18.2378 21H15.2738L18.6798 1.76H21.6438L20.4738 8.338C21.0804 7.73133 21.7998 7.26333 22.6318 6.934C23.4638 6.60467 24.3391 6.44 25.2578 6.44ZM40.8945 6.44C42.6799 6.44 44.1012 6.94267 45.1585 7.948C46.2332 8.95333 46.7705 10.3053 46.7705 12.004C46.7705 12.4027 46.7272 12.8793 46.6405 13.434C46.5712 13.8153 46.4499 14.2833 46.2765 14.838H35.3305C35.3132 14.9593 35.3045 15.1413 35.3045 15.384C35.3045 16.4067 35.6165 17.2213 36.2405 17.828C36.8819 18.4347 37.7139 18.738 38.7365 18.738C40.3485 18.738 41.5879 18.0707 42.4545 16.736H45.6525C44.9939 18.0533 44.0232 19.1367 42.7405 19.986C41.4579 20.818 39.9759 21.234 38.2945 21.234C37.0985 21.234 36.0499 21 35.1485 20.532C34.2472 20.064 33.5452 19.3967 33.0425 18.53C32.5399 17.646 32.2885 16.6147 32.2885 15.436C32.2885 14.9333 32.3405 14.396 32.4445 13.824C32.7045 12.3507 33.2332 11.0593 34.0305 9.95C34.8279 8.82333 35.8159 7.95667 36.9945 7.35C38.1905 6.74333 39.4905 6.44 40.8945 6.44ZM43.6765 12.706C43.7112 12.394 43.7285 12.1687 43.7285 12.03C43.7285 11.0767 43.4079 10.3227 42.7665 9.768C42.1425 9.21333 41.3279 8.936 40.3225 8.936C39.2652 8.936 38.3119 9.274 37.4625 9.95C36.6132 10.626 36.0325 11.5447 35.7205 12.706H43.6765ZM62.2663 21.234C61.053 21.234 59.987 20.9827 59.0683 20.48C58.1497 19.9773 57.4303 19.2667 56.9103 18.348C56.4077 17.4293 56.1563 16.3807 56.1563 15.202C56.1563 13.59 56.529 12.1167 57.2743 10.782C58.037 9.44733 59.077 8.39 60.3943 7.61C61.729 6.83 63.211 6.44 64.8403 6.44C66.0537 6.44 67.1283 6.7 68.0643 7.22C69.0003 7.72267 69.7283 8.43333 70.2483 9.352C70.7857 10.2533 71.0543 11.302 71.0543 12.498C71.0543 14.11 70.6643 15.5833 69.8843 16.918C69.1043 18.2527 68.047 19.31 66.7123 20.09C65.3777 20.8527 63.8957 21.234 62.2663 21.234ZM62.6303 18.738C63.6183 18.738 64.5197 18.4607 65.3343 17.906C66.1663 17.334 66.8163 16.5887 67.2843 15.67C67.7523 14.734 67.9863 13.7373 67.9863 12.68C67.9863 11.484 67.6483 10.5653 66.9723 9.924C66.2963 9.26533 65.447 8.936 64.4243 8.936C63.419 8.936 62.5177 9.222 61.7203 9.794C60.9403 10.3487 60.325 11.1027 59.8743 12.056C59.441 12.992 59.2243 13.9973 59.2243 15.072C59.2243 16.2333 59.5363 17.1347 60.1603 17.776C60.8017 18.4173 61.625 18.738 62.6303 18.738ZM72.8664 13.824C73.1264 12.3507 73.6464 11.0593 74.4264 9.95C75.2238 8.82333 76.2031 7.95667 77.3644 7.35C78.5431 6.74333 79.8171 6.44 81.1864 6.44C82.9198 6.44 84.2804 6.856 85.2684 7.688C86.2564 8.50267 86.8198 9.67267 86.9584 11.198H83.7604C83.6218 10.4873 83.3011 9.93267 82.7984 9.534C82.2958 9.13533 81.6111 8.936 80.7444 8.936C79.5311 8.936 78.4911 9.36933 77.6244 10.236C76.7578 11.0853 76.1858 12.2813 75.9084 13.824C75.8218 14.3787 75.7784 14.8293 75.7784 15.176C75.7784 16.32 76.0644 17.204 76.6364 17.828C77.2084 18.4347 78.0058 18.738 79.0284 18.738C80.7444 18.738 82.0098 17.984 82.8244 16.476H86.0224C85.3464 17.932 84.3584 19.0933 83.0584 19.96C81.7758 20.8093 80.2851 21.234 78.5864 21.234C76.7838 21.234 75.3538 20.7227 74.2964 19.7C73.2391 18.66 72.7104 17.256 72.7104 15.488C72.7104 14.9507 72.7624 14.396 72.8664 13.824ZM96.9063 6.44C98.6916 6.44 100.113 6.94267 101.17 7.948C102.245 8.95333 102.782 10.3053 102.782 12.004C102.782 12.4027 102.739 12.8793 102.652 13.434C102.583 13.8153 102.462 14.2833 102.288 14.838H91.3423C91.3249 14.9593 91.3163 15.1413 91.3163 15.384C91.3163 16.4067 91.6283 17.2213 92.2523 17.828C92.8936 18.4347 93.7256 18.738 94.7483 18.738C96.3603 18.738 97.5996 18.0707 98.4663 16.736H101.664C101.006 18.0533 100.035 19.1367 98.7523 19.986C97.4696 20.818 95.9876 21.234 94.3063 21.234C93.1103 21.234 92.0616 21 91.1603 20.532C90.2589 20.064 89.5569 19.3967 89.0543 18.53C88.5516 17.646 88.3003 16.6147 88.3003 15.436C88.3003 14.9333 88.3523 14.396 88.4563 13.824C88.7163 12.3507 89.2449 11.0593 90.0423 9.95C90.8396 8.82333 91.8276 7.95667 93.0063 7.35C94.2023 6.74333 95.5023 6.44 96.9063 6.44ZM99.6883 12.706C99.7229 12.394 99.7403 12.1687 99.7403 12.03C99.7403 11.0767 99.4196 10.3227 98.7783 9.768C98.1543 9.21333 97.3396 8.936 96.3343 8.936C95.2769 8.936 94.3236 9.274 93.4743 9.95C92.6249 10.626 92.0443 11.5447 91.7323 12.706H99.6883ZM104.503 13.772C104.763 12.3333 105.283 11.0593 106.063 9.95C106.86 8.84067 107.831 7.98267 108.975 7.376C110.119 6.752 111.315 6.44 112.563 6.44C113.69 6.44 114.634 6.66533 115.397 7.116C116.16 7.54933 116.732 8.09533 117.113 8.754L117.477 6.674H120.467L117.945 21H114.955L115.345 18.868C114.721 19.544 113.932 20.1073 112.979 20.558C112.043 21.0087 111.02 21.234 109.911 21.234C108.836 21.234 107.874 20.9913 107.025 20.506C106.193 20.0207 105.534 19.336 105.049 18.452C104.581 17.5507 104.347 16.5193 104.347 15.358C104.347 14.838 104.399 14.3093 104.503 13.772ZM116.229 13.824C116.298 13.4947 116.333 13.1393 116.333 12.758C116.333 11.5967 115.986 10.6867 115.293 10.028C114.617 9.352 113.768 9.014 112.745 9.014C111.982 9.014 111.237 9.20467 110.509 9.586C109.781 9.95 109.148 10.496 108.611 11.224C108.074 11.9347 107.718 12.784 107.545 13.772C107.476 14.1013 107.441 14.4567 107.441 14.838C107.441 16.0167 107.779 16.9527 108.455 17.646C109.148 18.322 110.006 18.66 111.029 18.66C111.792 18.66 112.537 18.4693 113.265 18.088C113.993 17.7067 114.626 17.152 115.163 16.424C115.7 15.6787 116.056 14.812 116.229 13.824ZM131.64 6.44C133.148 6.44 134.344 6.84733 135.228 7.662C136.13 8.45933 136.58 9.612 136.58 11.12C136.58 11.5013 136.537 11.978 136.45 12.55L134.942 21H132.004L133.434 12.992C133.504 12.5067 133.538 12.16 133.538 11.952C133.538 10.9987 133.27 10.2707 132.732 9.768C132.212 9.26533 131.484 9.014 130.548 9.014C129.422 9.014 128.468 9.36067 127.688 10.054C126.926 10.73 126.44 11.7093 126.232 12.992V12.914L124.802 21H121.838L124.36 6.674H127.324L127.038 8.338C127.628 7.74867 128.321 7.28933 129.118 6.96C129.933 6.61333 130.774 6.44 131.64 6.44ZM151.64 8.806C152.264 8.11267 153.053 7.54933 154.006 7.116C154.959 6.66533 155.973 6.44 157.048 6.44C158.157 6.44 159.128 6.674 159.96 7.142C160.809 7.61 161.468 8.27733 161.936 9.144C162.404 9.99333 162.638 10.9987 162.638 12.16C162.638 12.6627 162.586 13.2 162.482 13.772C162.222 15.2107 161.693 16.502 160.896 17.646C160.116 18.7727 159.154 19.6567 158.01 20.298C156.883 20.922 155.696 21.234 154.448 21.234C153.339 21.234 152.394 21.0173 151.614 20.584C150.834 20.1507 150.245 19.596 149.846 18.92L149.482 21H146.518L149.924 1.76H152.888L151.64 8.806ZM159.466 13.772C159.535 13.4427 159.57 13.0873 159.57 12.706C159.57 11.5447 159.223 10.6433 158.53 10.002C157.854 9.34333 156.996 9.014 155.956 9.014C155.211 9.014 154.465 9.20467 153.72 9.586C152.992 9.96733 152.359 10.522 151.822 11.25C151.285 11.978 150.929 12.836 150.756 13.824C150.687 14.1533 150.652 14.5087 150.652 14.89C150.652 16.0513 150.99 16.97 151.666 17.646C152.359 18.322 153.217 18.66 154.24 18.66C155.003 18.66 155.748 18.4693 156.476 18.088C157.221 17.6893 157.863 17.1173 158.4 16.372C158.937 15.6267 159.293 14.76 159.466 13.772ZM172.875 6.44C174.66 6.44 176.082 6.94267 177.139 7.948C178.214 8.95333 178.751 10.3053 178.751 12.004C178.751 12.4027 178.708 12.8793 178.621 13.434C178.552 13.8153 178.43 14.2833 178.257 14.838H167.311C167.294 14.9593 167.285 15.1413 167.285 15.384C167.285 16.4067 167.597 17.2213 168.221 17.828C168.862 18.4347 169.694 18.738 170.717 18.738C172.329 18.738 173.568 18.0707 174.435 16.736H177.633C176.974 18.0533 176.004 19.1367 174.721 19.986C173.438 20.818 171.956 21.234 170.275 21.234C169.079 21.234 168.03 21 167.129 20.532C166.228 20.064 165.526 19.3967 165.023 18.53C164.52 17.646 164.269 16.6147 164.269 15.436C164.269 14.9333 164.321 14.396 164.425 13.824C164.685 12.3507 165.214 11.0593 166.011 9.95C166.808 8.82333 167.796 7.95667 168.975 7.35C170.171 6.74333 171.471 6.44 172.875 6.44ZM175.657 12.706C175.692 12.394 175.709 12.1687 175.709 12.03C175.709 11.0767 175.388 10.3227 174.747 9.768C174.123 9.21333 173.308 8.936 172.303 8.936C171.246 8.936 170.292 9.274 169.443 9.95C168.594 10.626 168.013 11.5447 167.701 12.706H175.657ZM180.472 13.772C180.732 12.3333 181.252 11.0593 182.032 9.95C182.829 8.84067 183.8 7.98267 184.944 7.376C186.088 6.752 187.284 6.44 188.532 6.44C189.659 6.44 190.603 6.66533 191.366 7.116C192.129 7.54933 192.701 8.09533 193.082 8.754L193.446 6.674H196.436L193.914 21H190.924L191.314 18.868C190.69 19.544 189.901 20.1073 188.948 20.558C188.012 21.0087 186.989 21.234 185.88 21.234C184.805 21.234 183.843 20.9913 182.994 20.506C182.162 20.0207 181.503 19.336 181.018 18.452C180.55 17.5507 180.316 16.5193 180.316 15.358C180.316 14.838 180.368 14.3093 180.472 13.772ZM192.198 13.824C192.267 13.4947 192.302 13.1393 192.302 12.758C192.302 11.5967 191.955 10.6867 191.262 10.028C190.586 9.352 189.737 9.014 188.714 9.014C187.951 9.014 187.206 9.20467 186.478 9.586C185.75 9.95 185.117 10.496 184.58 11.224C184.043 11.9347 183.687 12.784 183.514 13.772C183.445 14.1013 183.41 14.4567 183.41 14.838C183.41 16.0167 183.748 16.9527 184.424 17.646C185.117 18.322 185.975 18.66 186.998 18.66C187.761 18.66 188.506 18.4693 189.234 18.088C189.962 17.7067 190.595 17.152 191.132 16.424C191.669 15.6787 192.025 14.812 192.198 13.824ZM202.851 9.196C203.44 8.32933 204.134 7.65333 204.931 7.168C205.746 6.68267 206.647 6.44 207.635 6.44L207.089 9.508H206.335C205.191 9.508 204.272 9.794 203.579 10.366C202.886 10.938 202.4 11.926 202.123 13.33L200.771 21H197.807L200.329 6.674H203.293L202.851 9.196ZM213.064 21.234C212.076 21.234 211.174 21.0693 210.36 20.74C209.545 20.3933 208.904 19.9167 208.436 19.31C207.968 18.686 207.734 17.9753 207.734 17.178C207.734 17.0393 207.751 16.8487 207.786 16.606H210.672C210.602 17.2647 210.802 17.8107 211.27 18.244C211.738 18.6773 212.396 18.894 213.246 18.894C214.078 18.894 214.762 18.7467 215.3 18.452C215.837 18.1573 216.106 17.724 216.106 17.152C216.106 16.6667 215.88 16.2767 215.43 15.982C214.996 15.6873 214.294 15.358 213.324 14.994C212.405 14.63 211.66 14.292 211.088 13.98C210.516 13.668 210.022 13.2433 209.606 12.706C209.19 12.1513 208.982 11.4667 208.982 10.652C208.982 9.82 209.216 9.092 209.684 8.468C210.169 7.82667 210.836 7.33267 211.686 6.986C212.552 6.622 213.54 6.44 214.65 6.44C215.655 6.44 216.548 6.61333 217.328 6.96C218.125 7.28933 218.74 7.766 219.174 8.39C219.624 8.99667 219.85 9.69867 219.85 10.496C219.85 10.7387 219.841 10.9207 219.824 11.042H217.016C217.085 10.366 216.886 9.82 216.418 9.404C215.967 8.988 215.317 8.78 214.468 8.78C213.722 8.78 213.116 8.936 212.648 9.248C212.197 9.56 211.972 9.98467 211.972 10.522C211.972 11.0593 212.206 11.4927 212.674 11.822C213.142 12.134 213.861 12.4807 214.831 12.862C215.716 13.2087 216.435 13.538 216.99 13.85C217.544 14.162 218.021 14.578 218.42 15.098C218.818 15.618 219.018 16.268 219.018 17.048C219.018 17.8973 218.758 18.6427 218.238 19.284C217.735 19.908 217.033 20.3933 216.132 20.74C215.23 21.0693 214.208 21.234 213.064 21.234ZM235.735 21.234C234.522 21.234 233.456 20.9827 232.537 20.48C231.618 19.9773 230.899 19.2667 230.379 18.348C229.876 17.4293 229.625 16.3807 229.625 15.202C229.625 13.59 229.998 12.1167 230.743 10.782C231.506 9.44733 232.546 8.39 233.863 7.61C235.198 6.83 236.68 6.44 238.309 6.44C239.522 6.44 240.597 6.7 241.533 7.22C242.469 7.72267 243.197 8.43333 243.717 9.352C244.254 10.2533 244.523 11.302 244.523 12.498C244.523 14.11 244.133 15.5833 243.353 16.918C242.573 18.2527 241.516 19.31 240.181 20.09C238.846 20.8527 237.364 21.234 235.735 21.234ZM236.099 18.738C237.087 18.738 237.988 18.4607 238.803 17.906C239.635 17.334 240.285 16.5887 240.753 15.67C241.221 14.734 241.455 13.7373 241.455 12.68C241.455 11.484 241.117 10.5653 240.441 9.924C239.765 9.26533 238.916 8.936 237.893 8.936C236.888 8.936 235.986 9.222 235.189 9.794C234.409 10.3487 233.794 11.1027 233.343 12.056C232.91 12.992 232.693 13.9973 232.693 15.072C232.693 16.2333 233.005 17.1347 233.629 17.776C234.27 18.4173 235.094 18.738 236.099 18.738ZM261.545 6.674L259.023 21H256.059L256.345 19.31C255.773 19.8993 255.08 20.3673 254.265 20.714C253.468 21.0433 252.645 21.208 251.795 21.208C250.287 21.208 249.083 20.8007 248.181 19.986C247.28 19.1713 246.829 18.0187 246.829 16.528C246.829 16.1293 246.873 15.6527 246.959 15.098L248.441 6.674H251.379L249.975 14.656C249.906 15.1413 249.871 15.488 249.871 15.696C249.871 16.6493 250.131 17.3773 250.651 17.88C251.189 18.3827 251.925 18.634 252.861 18.634C253.953 18.634 254.881 18.3133 255.643 17.672C256.406 17.0133 256.909 16.0687 257.151 14.838L258.581 6.674H261.545ZM267.978 9.196C268.567 8.32933 269.261 7.65333 270.058 7.168C270.873 6.68267 271.774 6.44 272.762 6.44L272.216 9.508H271.462C270.318 9.508 269.399 9.794 268.706 10.366C268.013 10.938 267.527 11.926 267.25 13.33L265.898 21H262.934L265.456 6.674H268.42L267.978 9.196ZM290.691 6.44C292.13 6.44 293.283 6.84733 294.149 7.662C295.016 8.45933 295.449 9.60333 295.449 11.094C295.449 11.4927 295.406 11.978 295.319 12.55L293.811 21H290.873L292.303 12.992C292.373 12.5067 292.407 12.16 292.407 11.952C292.407 10.9987 292.139 10.2707 291.601 9.768C291.081 9.26533 290.353 9.014 289.417 9.014C288.291 9.014 287.337 9.36067 286.557 10.054C285.795 10.73 285.309 11.7093 285.101 12.992V12.94L283.671 21H280.707L284.113 1.76H287.077L285.907 8.338C286.514 7.73133 287.233 7.26333 288.065 6.934C288.897 6.60467 289.773 6.44 290.691 6.44ZM306.328 6.44C308.113 6.44 309.535 6.94267 310.592 7.948C311.667 8.95333 312.204 10.3053 312.204 12.004C312.204 12.4027 312.161 12.8793 312.074 13.434C312.005 13.8153 311.883 14.2833 311.71 14.838H300.764C300.747 14.9593 300.738 15.1413 300.738 15.384C300.738 16.4067 301.05 17.2213 301.674 17.828C302.315 18.4347 303.147 18.738 304.17 18.738C305.782 18.738 307.021 18.0707 307.888 16.736H311.086C310.427 18.0533 309.457 19.1367 308.174 19.986C306.891 20.818 305.409 21.234 303.728 21.234C302.532 21.234 301.483 21 300.582 20.532C299.681 20.064 298.979 19.3967 298.476 18.53C297.973 17.646 297.722 16.6147 297.722 15.436C297.722 14.9333 297.774 14.396 297.878 13.824C298.138 12.3507 298.667 11.0593 299.464 9.95C300.261 8.82333 301.249 7.95667 302.428 7.35C303.624 6.74333 304.924 6.44 306.328 6.44ZM309.11 12.706C309.145 12.394 309.162 12.1687 309.162 12.03C309.162 11.0767 308.841 10.3227 308.2 9.768C307.576 9.21333 306.761 8.936 305.756 8.936C304.699 8.936 303.745 9.274 302.896 9.95C302.047 10.626 301.466 11.5447 301.154 12.706H309.11ZM322.375 6.44C324.16 6.44 325.582 6.94267 326.639 7.948C327.714 8.95333 328.251 10.3053 328.251 12.004C328.251 12.4027 328.208 12.8793 328.121 13.434C328.052 13.8153 327.93 14.2833 327.757 14.838H316.811C316.794 14.9593 316.785 15.1413 316.785 15.384C316.785 16.4067 317.097 17.2213 317.721 17.828C318.362 18.4347 319.194 18.738 320.217 18.738C321.829 18.738 323.068 18.0707 323.935 16.736H327.133C326.474 18.0533 325.504 19.1367 324.221 19.986C322.938 20.818 321.456 21.234 319.775 21.234C318.579 21.234 317.53 21 316.629 20.532C315.728 20.064 315.026 19.3967 314.523 18.53C314.02 17.646 313.769 16.6147 313.769 15.436C313.769 14.9333 313.821 14.396 313.925 13.824C314.185 12.3507 314.714 11.0593 315.511 9.95C316.308 8.82333 317.296 7.95667 318.475 7.35C319.671 6.74333 320.971 6.44 322.375 6.44ZM325.157 12.706C325.192 12.394 325.209 12.1687 325.209 12.03C325.209 11.0767 324.888 10.3227 324.247 9.768C323.623 9.21333 322.808 8.936 321.803 8.936C320.746 8.936 319.792 9.274 318.943 9.95C318.094 10.626 317.513 11.5447 317.201 12.706H325.157ZM329.972 13.772C330.232 12.3333 330.752 11.0593 331.532 9.95C332.329 8.84067 333.3 7.98267 334.444 7.376C335.588 6.752 336.793 6.44 338.058 6.44C338.994 6.44 339.878 6.648 340.71 7.064C341.542 7.46267 342.175 8 342.608 8.676L343.83 1.76H346.82L343.414 21H340.424L340.814 18.842C340.19 19.5527 339.41 20.1333 338.474 20.584C337.555 21.0173 336.541 21.234 335.432 21.234C334.34 21.234 333.369 20.9913 332.52 20.506C331.671 20.0207 331.003 19.336 330.518 18.452C330.05 17.5507 329.816 16.5193 329.816 15.358C329.816 14.838 329.868 14.3093 329.972 13.772ZM341.698 13.824C341.767 13.4947 341.802 13.1393 341.802 12.758C341.802 11.5967 341.455 10.6867 340.762 10.028C340.086 9.352 339.237 9.014 338.214 9.014C337.451 9.014 336.706 9.20467 335.978 9.586C335.25 9.95 334.617 10.496 334.08 11.224C333.543 11.9347 333.187 12.784 333.014 13.772C332.945 14.1013 332.91 14.4567 332.91 14.838C332.91 16.0167 333.248 16.9527 333.924 17.646C334.617 18.322 335.475 18.66 336.498 18.66C337.261 18.66 338.006 18.4693 338.734 18.088C339.462 17.7067 340.095 17.152 340.632 16.424C341.169 15.6787 341.525 14.812 341.698 13.824ZM353.677 1.76L350.271 21H347.307L350.713 1.76H353.677ZM362.898 6.44C364.684 6.44 366.105 6.94267 367.162 7.948C368.237 8.95333 368.774 10.3053 368.774 12.004C368.774 12.4027 368.731 12.8793 368.644 13.434C368.575 13.8153 368.454 14.2833 368.28 14.838H357.334C357.317 14.9593 357.308 15.1413 357.308 15.384C357.308 16.4067 357.62 17.2213 358.244 17.828C358.886 18.4347 359.718 18.738 360.74 18.738C362.352 18.738 363.592 18.0707 364.458 16.736H367.656C366.998 18.0533 366.027 19.1367 364.744 19.986C363.462 20.818 361.98 21.234 360.298 21.234C359.102 21.234 358.054 21 357.152 20.532C356.251 20.064 355.549 19.3967 355.046 18.53C354.544 17.646 354.292 16.6147 354.292 15.436C354.292 14.9333 354.344 14.396 354.448 13.824C354.708 12.3507 355.237 11.0593 356.034 9.95C356.832 8.82333 357.82 7.95667 358.998 7.35C360.194 6.74333 361.494 6.44 362.898 6.44ZM365.68 12.706C365.715 12.394 365.732 12.1687 365.732 12.03C365.732 11.0767 365.412 10.3227 364.77 9.768C364.146 9.21333 363.332 8.936 362.326 8.936C361.269 8.936 360.316 9.274 359.466 9.95C358.617 10.626 358.036 11.5447 357.724 12.706H365.68ZM375.487 21.234C374.499 21.234 373.598 21.0693 372.783 20.74C371.969 20.3933 371.327 19.9167 370.859 19.31C370.391 18.686 370.157 17.9753 370.157 17.178C370.157 17.0393 370.175 16.8487 370.209 16.606H373.095C373.026 17.2647 373.225 17.8107 373.693 18.244C374.161 18.6773 374.82 18.894 375.669 18.894C376.501 18.894 377.186 18.7467 377.723 18.452C378.261 18.1573 378.529 17.724 378.529 17.152C378.529 16.6667 378.304 16.2767 377.853 15.982C377.42 15.6873 376.718 15.358 375.747 14.994C374.829 14.63 374.083 14.292 373.511 13.98C372.939 13.668 372.445 13.2433 372.029 12.706C371.613 12.1513 371.405 11.4667 371.405 10.652C371.405 9.82 371.639 9.092 372.107 8.468C372.593 7.82667 373.26 7.33267 374.109 6.986C374.976 6.622 375.964 6.44 377.073 6.44C378.079 6.44 378.971 6.61333 379.751 6.96C380.549 7.28933 381.164 7.766 381.597 8.39C382.048 8.99667 382.273 9.69867 382.273 10.496C382.273 10.7387 382.265 10.9207 382.247 11.042H379.439C379.509 10.366 379.309 9.82 378.841 9.404C378.391 8.988 377.741 8.78 376.891 8.78C376.146 8.78 375.539 8.936 375.071 9.248C374.621 9.56 374.395 9.98467 374.395 10.522C374.395 11.0593 374.629 11.4927 375.097 11.822C375.565 12.134 376.285 12.4807 377.255 12.862C378.139 13.2087 378.859 13.538 379.413 13.85C379.968 14.162 380.445 14.578 380.843 15.098C381.242 15.618 381.441 16.268 381.441 17.048C381.441 17.8973 381.181 18.6427 380.661 19.284C380.159 19.908 379.457 20.3933 378.555 20.74C377.654 21.0693 376.631 21.234 375.487 21.234ZM389.376 21.234C388.388 21.234 387.487 21.0693 386.672 20.74C385.857 20.3933 385.216 19.9167 384.748 19.31C384.28 18.686 384.046 17.9753 384.046 17.178C384.046 17.0393 384.063 16.8487 384.098 16.606H386.984C386.915 17.2647 387.114 17.8107 387.582 18.244C388.05 18.6773 388.709 18.894 389.558 18.894C390.39 18.894 391.075 18.7467 391.612 18.452C392.149 18.1573 392.418 17.724 392.418 17.152C392.418 16.6667 392.193 16.2767 391.742 15.982C391.309 15.6873 390.607 15.358 389.636 14.994C388.717 14.63 387.972 14.292 387.4 13.98C386.828 13.668 386.334 13.2433 385.918 12.706C385.502 12.1513 385.294 11.4667 385.294 10.652C385.294 9.82 385.528 9.092 385.996 8.468C386.481 7.82667 387.149 7.33267 387.998 6.986C388.865 6.622 389.853 6.44 390.962 6.44C391.967 6.44 392.86 6.61333 393.64 6.96C394.437 7.28933 395.053 7.766 395.486 8.39C395.937 8.99667 396.162 9.69867 396.162 10.496C396.162 10.7387 396.153 10.9207 396.136 11.042H393.328C393.397 10.366 393.198 9.82 392.73 9.404C392.279 8.988 391.629 8.78 390.78 8.78C390.035 8.78 389.428 8.936 388.96 9.248C388.509 9.56 388.284 9.98467 388.284 10.522C388.284 11.0593 388.518 11.4927 388.986 11.822C389.454 12.134 390.173 12.4807 391.144 12.862C392.028 13.2087 392.747 13.538 393.302 13.85C393.857 14.162 394.333 14.578 394.732 15.098C395.131 15.618 395.33 16.268 395.33 17.048C395.33 17.8973 395.07 18.6427 394.55 19.284C394.047 19.908 393.345 20.3933 392.444 20.74C391.543 21.0693 390.52 21.234 389.376 21.234ZM410.904 8.806C411.528 8.11267 412.316 7.54933 413.27 7.116C414.223 6.66533 415.237 6.44 416.312 6.44C417.421 6.44 418.392 6.674 419.224 7.142C420.073 7.61 420.732 8.27733 421.2 9.144C421.668 9.99333 421.902 10.9987 421.902 12.16C421.902 12.6627 421.85 13.2 421.746 13.772C421.486 15.2107 420.957 16.502 420.16 17.646C419.38 18.7727 418.418 19.6567 417.274 20.298C416.147 20.922 414.96 21.234 413.712 21.234C412.602 21.234 411.658 21.0173 410.878 20.584C410.098 20.1507 409.508 19.596 409.11 18.92L408.746 21H405.782L409.188 1.76H412.152L410.904 8.806ZM418.73 13.772C418.799 13.4427 418.834 13.0873 418.834 12.706C418.834 11.5447 418.487 10.6433 417.794 10.002C417.118 9.34333 416.26 9.014 415.22 9.014C414.474 9.014 413.729 9.20467 412.984 9.586C412.256 9.96733 411.623 10.522 411.086 11.25C410.548 11.978 410.193 12.836 410.02 13.824C409.95 14.1533 409.916 14.5087 409.916 14.89C409.916 16.0513 410.254 16.97 410.93 17.646C411.623 18.322 412.481 18.66 413.504 18.66C414.266 18.66 415.012 18.4693 415.74 18.088C416.485 17.6893 417.126 17.1173 417.664 16.372C418.201 15.6267 418.556 14.76 418.73 13.772ZM429.773 1.76L426.367 21H423.403L426.809 1.76H429.773ZM434.626 4.776C434.158 4.776 433.777 4.62867 433.482 4.334C433.187 4.03933 433.04 3.66667 433.04 3.216C433.04 2.60933 433.265 2.08933 433.716 1.656C434.184 1.20533 434.713 0.979999 435.302 0.979999C435.77 0.979999 436.143 1.12733 436.42 1.422C436.715 1.71667 436.862 2.08933 436.862 2.54C436.862 3.14667 436.637 3.67533 436.186 4.126C435.735 4.55933 435.215 4.776 434.626 4.776ZM435.744 6.674L433.222 21H430.258L432.78 6.674H435.744ZM445.46 6.44C446.569 6.44 447.514 6.66533 448.294 7.116C449.091 7.54933 449.663 8.09533 450.01 8.754L450.374 6.674H453.364L450.816 21.234C450.573 22.5513 450.088 23.7213 449.36 24.744C448.632 25.784 447.687 26.5987 446.526 27.188C445.364 27.7773 444.056 28.072 442.6 28.072C441.334 28.072 440.225 27.864 439.272 27.448C438.318 27.0493 437.599 26.4687 437.114 25.706C436.628 24.9433 436.42 24.042 436.49 23.002H439.428C439.514 23.7473 439.887 24.3453 440.546 24.796C441.204 25.264 442.045 25.498 443.068 25.498C444.264 25.498 445.295 25.134 446.162 24.406C447.028 23.678 447.583 22.6207 447.826 21.234L448.242 18.842C447.618 19.518 446.838 20.09 445.902 20.558C444.966 21.0087 443.952 21.234 442.86 21.234C441.768 21.234 440.797 20.9913 439.948 20.506C439.098 20.0207 438.431 19.336 437.946 18.452C437.478 17.5507 437.244 16.5193 437.244 15.358C437.244 14.838 437.296 14.3093 437.4 13.772C437.66 12.3333 438.18 11.0593 438.96 9.95C439.757 8.84067 440.728 7.98267 441.872 7.376C443.016 6.752 444.212 6.44 445.46 6.44ZM449.126 13.824C449.195 13.4947 449.23 13.1393 449.23 12.758C449.23 11.5967 448.883 10.6867 448.19 10.028C447.514 9.352 446.664 9.014 445.642 9.014C444.879 9.014 444.134 9.20467 443.406 9.586C442.678 9.95 442.045 10.496 441.508 11.224C440.97 11.9347 440.615 12.784 440.442 13.772C440.372 14.1013 440.338 14.4567 440.338 14.838C440.338 16.0167 440.676 16.9527 441.352 17.646C442.045 18.322 442.903 18.66 443.926 18.66C444.688 18.66 445.434 18.4693 446.162 18.088C446.89 17.7067 447.522 17.152 448.06 16.424C448.597 15.6787 448.952 14.812 449.126 13.824ZM464.719 6.44C466.157 6.44 467.31 6.84733 468.177 7.662C469.043 8.45933 469.477 9.60333 469.477 11.094C469.477 11.4927 469.433 11.978 469.347 12.55L467.839 21H464.901L466.331 12.992C466.4 12.5067 466.435 12.16 466.435 11.952C466.435 10.9987 466.166 10.2707 465.629 9.768C465.109 9.26533 464.381 9.014 463.445 9.014C462.318 9.014 461.365 9.36067 460.585 10.054C459.822 10.73 459.337 11.7093 459.129 12.992V12.94L457.699 21H454.735L458.141 1.76H461.105L459.935 8.338C460.541 7.73133 461.261 7.26333 462.093 6.934C462.925 6.60467 463.8 6.44 464.719 6.44ZM475.779 17.022C475.745 17.2647 475.727 17.4207 475.727 17.49C475.727 17.854 475.84 18.1227 476.065 18.296C476.291 18.452 476.663 18.53 477.183 18.53H479.003L478.561 21H476.221C475.077 21 474.202 20.7747 473.595 20.324C472.989 19.856 472.685 19.1193 472.685 18.114C472.685 17.7327 472.72 17.3687 472.789 17.022L474.193 9.092H472.503L472.919 6.674H474.635L475.259 3.112H478.249L477.625 6.674H481.083L480.667 9.092H477.183L475.779 17.022ZM485.167 17.438L480.773 24.614H478.849L481.943 17.438H485.167ZM6.344 44.218L5.382 49.704H11.622L11.232 51.992H4.992L3.978 57.686H10.998L10.582 60H0.598L3.796 41.904H13.78L13.364 44.218H6.344ZM14.5188 52.772C14.7788 51.3333 15.2988 50.0593 16.0788 48.95C16.8761 47.8407 17.8468 46.9827 18.9908 46.376C20.1348 45.752 21.3308 45.44 22.5788 45.44C23.7054 45.44 24.6501 45.6653 25.4128 46.116C26.1754 46.5493 26.7474 47.0953 27.1288 47.754L27.4928 45.674H30.4828L27.9608 60H24.9708L25.3608 57.868C24.7368 58.544 23.9481 59.1073 22.9948 59.558C22.0588 60.0087 21.0361 60.234 19.9268 60.234C18.8521 60.234 17.8901 59.9913 17.0408 59.506C16.2088 59.0207 15.5501 58.336 15.0648 57.452C14.5968 56.5507 14.3628 55.5193 14.3628 54.358C14.3628 53.838 14.4148 53.3093 14.5188 52.772ZM26.2448 52.824C26.3141 52.4947 26.3488 52.1393 26.3488 51.758C26.3488 50.5967 26.0021 49.6867 25.3088 49.028C24.6328 48.352 23.7834 48.014 22.7608 48.014C21.9981 48.014 21.2528 48.2047 20.5248 48.586C19.7968 48.95 19.1641 49.496 18.6268 50.224C18.0894 50.9347 17.7341 51.784 17.5608 52.772C17.4914 53.1013 17.4568 53.4567 17.4568 53.838C17.4568 55.0167 17.7948 55.9527 18.4708 56.646C19.1641 57.322 20.0221 57.66 21.0448 57.66C21.8074 57.66 22.5528 57.4693 23.2808 57.088C24.0088 56.7067 24.6414 56.152 25.1788 55.424C25.7161 54.6787 26.0714 53.812 26.2448 52.824ZM32.1399 52.824C32.3999 51.3507 32.9199 50.0593 33.6999 48.95C34.4972 47.8233 35.4765 46.9567 36.6379 46.35C37.8165 45.7433 39.0905 45.44 40.4599 45.44C42.1932 45.44 43.5539 45.856 44.5419 46.688C45.5299 47.5027 46.0932 48.6727 46.2319 50.198H43.0339C42.8952 49.4873 42.5745 48.9327 42.0719 48.534C41.5692 48.1353 40.8845 47.936 40.0179 47.936C38.8045 47.936 37.7645 48.3693 36.8979 49.236C36.0312 50.0853 35.4592 51.2813 35.1819 52.824C35.0952 53.3787 35.0519 53.8293 35.0519 54.176C35.0519 55.32 35.3379 56.204 35.9099 56.828C36.4819 57.4347 37.2792 57.738 38.3019 57.738C40.0179 57.738 41.2832 56.984 42.0979 55.476H45.2959C44.6199 56.932 43.6319 58.0933 42.3319 58.96C41.0492 59.8093 39.5585 60.234 37.8599 60.234C36.0572 60.234 34.6272 59.7227 33.5699 58.7C32.5125 57.66 31.9839 56.256 31.9839 54.488C31.9839 53.9507 32.0359 53.396 32.1399 52.824ZM57.4277 45.44C58.8664 45.44 60.019 45.8473 60.8857 46.662C61.7524 47.4593 62.1857 48.6033 62.1857 50.094C62.1857 50.4927 62.1424 50.978 62.0557 51.55L60.5477 60H57.6097L59.0397 51.992C59.109 51.5067 59.1437 51.16 59.1437 50.952C59.1437 49.9987 58.875 49.2707 58.3377 48.768C57.8177 48.2653 57.0897 48.014 56.1537 48.014C55.027 48.014 54.0737 48.3607 53.2937 49.054C52.531 49.73 52.0457 50.7093 51.8377 51.992V51.94L50.4077 60H47.4437L50.8497 40.76H53.8137L52.6437 47.338C53.2504 46.7313 53.9697 46.2633 54.8017 45.934C55.6337 45.6047 56.509 45.44 57.4277 45.44ZM72.4094 52.824C72.6694 51.3507 73.1894 50.0593 73.9694 48.95C74.7667 47.8233 75.7461 46.9567 76.9074 46.35C78.0861 45.7433 79.3601 45.44 80.7294 45.44C82.4627 45.44 83.8234 45.856 84.8114 46.688C85.7994 47.5027 86.3627 48.6727 86.5014 50.198H83.3034C83.1647 49.4873 82.8441 48.9327 82.3414 48.534C81.8387 48.1353 81.1541 47.936 80.2874 47.936C79.0741 47.936 78.0341 48.3693 77.1674 49.236C76.3007 50.0853 75.7287 51.2813 75.4514 52.824C75.3647 53.3787 75.3214 53.8293 75.3214 54.176C75.3214 55.32 75.6074 56.204 76.1794 56.828C76.7514 57.4347 77.5487 57.738 78.5714 57.738C80.2874 57.738 81.5527 56.984 82.3674 55.476H85.5654C84.8894 56.932 83.9014 58.0933 82.6014 58.96C81.3187 59.8093 79.8281 60.234 78.1294 60.234C76.3267 60.234 74.8967 59.7227 73.8394 58.7C72.7821 57.66 72.2534 56.256 72.2534 54.488C72.2534 53.9507 72.3054 53.396 72.4094 52.824ZM92.7572 48.196C93.3466 47.3293 94.0399 46.6533 94.8372 46.168C95.6519 45.6827 96.5532 45.44 97.5412 45.44L96.9952 48.508H96.2412C95.0972 48.508 94.1786 48.794 93.4852 49.366C92.7919 49.938 92.3066 50.926 92.0292 52.33L90.6772 60H87.7132L90.2352 45.674H93.1992L92.7572 48.196ZM113.188 45.674L110.666 60H107.702L107.988 58.31C107.416 58.8993 106.722 59.3673 105.908 59.714C105.11 60.0433 104.287 60.208 103.438 60.208C101.93 60.208 100.725 59.8007 99.8238 58.986C98.9224 58.1713 98.4718 57.0187 98.4718 55.528C98.4718 55.1293 98.5151 54.6527 98.6018 54.098L100.084 45.674H103.022L101.618 53.656C101.548 54.1413 101.514 54.488 101.514 54.696C101.514 55.6493 101.774 56.3773 102.294 56.88C102.831 57.3827 103.568 57.634 104.504 57.634C105.596 57.634 106.523 57.3133 107.286 56.672C108.048 56.0133 108.551 55.0687 108.794 53.838L110.224 45.674H113.188ZM123.313 45.44C125.098 45.44 126.519 45.9427 127.577 46.948C128.651 47.9533 129.189 49.3053 129.189 51.004C129.189 51.4027 129.145 51.8793 129.059 52.434C128.989 52.8153 128.868 53.2833 128.695 53.838H117.749C117.731 53.9593 117.723 54.1413 117.723 54.384C117.723 55.4067 118.035 56.2213 118.659 56.828C119.3 57.4347 120.132 57.738 121.155 57.738C122.767 57.738 124.006 57.0707 124.873 55.736H128.071C127.412 57.0533 126.441 58.1367 125.159 58.986C123.876 59.818 122.394 60.234 120.713 60.234C119.517 60.234 118.468 60 117.567 59.532C116.665 59.064 115.963 58.3967 115.461 57.53C114.958 56.646 114.707 55.6147 114.707 54.436C114.707 53.9333 114.759 53.396 114.863 52.824C115.123 51.3507 115.651 50.0593 116.449 48.95C117.246 47.8233 118.234 46.9567 119.413 46.35C120.609 45.7433 121.909 45.44 123.313 45.44ZM126.095 51.706C126.129 51.394 126.147 51.1687 126.147 51.03C126.147 50.0767 125.826 49.3227 125.185 48.768C124.561 48.2133 123.746 47.936 122.741 47.936C121.683 47.936 120.73 48.274 119.881 48.95C119.031 49.626 118.451 50.5447 118.139 51.706H126.095ZM136.993 40.76L133.587 60H130.623L134.029 40.76H136.993ZM165.19 45.44C166.698 45.44 167.902 45.8473 168.804 46.662C169.705 47.4767 170.156 48.6293 170.156 50.12C170.156 50.5187 170.112 50.9953 170.026 51.55L168.518 60H165.58L167.01 51.992C167.079 51.5067 167.114 51.16 167.114 50.952C167.114 49.9987 166.845 49.2707 166.308 48.768C165.788 48.2653 165.06 48.014 164.124 48.014C162.997 48.014 162.044 48.3607 161.264 49.054C160.501 49.73 160.016 50.7093 159.808 51.992L158.378 60H155.44L156.87 51.992C156.939 51.5067 156.974 51.16 156.974 50.952C156.974 49.9987 156.705 49.2707 156.168 48.768C155.648 48.2653 154.92 48.014 153.984 48.014C152.857 48.014 151.904 48.3607 151.124 49.054C150.361 49.73 149.876 50.7093 149.668 51.992V51.914L148.238 60H145.274L147.796 45.674H150.76L150.474 47.338C151.046 46.7487 151.73 46.2893 152.528 45.96C153.342 45.6133 154.183 45.44 155.05 45.44C156.194 45.44 157.173 45.6827 157.988 46.168C158.82 46.6533 159.4 47.3553 159.73 48.274C160.302 47.4073 161.09 46.7227 162.096 46.22C163.101 45.7 164.132 45.44 165.19 45.44ZM176.657 43.776C176.189 43.776 175.808 43.6287 175.513 43.334C175.219 43.0393 175.071 42.6667 175.071 42.216C175.071 41.6093 175.297 41.0893 175.747 40.656C176.215 40.2053 176.744 39.98 177.333 39.98C177.801 39.98 178.174 40.1273 178.451 40.422C178.746 40.7167 178.893 41.0893 178.893 41.54C178.893 42.1467 178.668 42.6753 178.217 43.126C177.767 43.5593 177.247 43.776 176.657 43.776ZM177.775 45.674L175.253 60H172.289L174.811 45.674H177.775ZM184.423 60.234C183.435 60.234 182.534 60.0693 181.719 59.74C180.904 59.3933 180.263 58.9167 179.795 58.31C179.327 57.686 179.093 56.9753 179.093 56.178C179.093 56.0393 179.11 55.8487 179.145 55.606H182.031C181.962 56.2647 182.161 56.8107 182.629 57.244C183.097 57.6773 183.756 57.894 184.605 57.894C185.437 57.894 186.122 57.7467 186.659 57.452C187.196 57.1573 187.465 56.724 187.465 56.152C187.465 55.6667 187.24 55.2767 186.789 54.982C186.356 54.6873 185.654 54.358 184.683 53.994C183.764 53.63 183.019 53.292 182.447 52.98C181.875 52.668 181.381 52.2433 180.965 51.706C180.549 51.1513 180.341 50.4667 180.341 49.652C180.341 48.82 180.575 48.092 181.043 47.468C181.528 46.8267 182.196 46.3327 183.045 45.986C183.912 45.622 184.9 45.44 186.009 45.44C187.014 45.44 187.907 45.6133 188.687 45.96C189.484 46.2893 190.1 46.766 190.533 47.39C190.984 47.9967 191.209 48.6987 191.209 49.496C191.209 49.7387 191.2 49.9207 191.183 50.042H188.375C188.444 49.366 188.245 48.82 187.777 48.404C187.326 47.988 186.676 47.78 185.827 47.78C185.082 47.78 184.475 47.936 184.007 48.248C183.556 48.56 183.331 48.9847 183.331 49.522C183.331 50.0593 183.565 50.4927 184.033 50.822C184.501 51.134 185.22 51.4807 186.191 51.862C187.075 52.2087 187.794 52.538 188.349 52.85C188.904 53.162 189.38 53.578 189.779 54.098C190.178 54.618 190.377 55.268 190.377 56.048C190.377 56.8973 190.117 57.6427 189.597 58.284C189.094 58.908 188.392 59.3933 187.491 59.74C186.59 60.0693 185.567 60.234 184.423 60.234ZM193.32 52.772C193.58 51.3333 194.1 50.0593 194.88 48.95C195.677 47.8407 196.648 46.9827 197.792 46.376C198.936 45.752 200.14 45.44 201.406 45.44C202.342 45.44 203.226 45.648 204.058 46.064C204.89 46.4627 205.522 47 205.956 47.676L207.178 40.76H210.168L206.762 60H203.772L204.162 57.842C203.538 58.5527 202.758 59.1333 201.822 59.584C200.903 60.0173 199.889 60.234 198.78 60.234C197.688 60.234 196.717 59.9913 195.868 59.506C195.018 59.0207 194.351 58.336 193.866 57.452C193.398 56.5507 193.164 55.5193 193.164 54.358C193.164 53.838 193.216 53.3093 193.32 52.772ZM205.046 52.824C205.115 52.4947 205.15 52.1393 205.15 51.758C205.15 50.5967 204.803 49.6867 204.11 49.028C203.434 48.352 202.584 48.014 201.562 48.014C200.799 48.014 200.054 48.2047 199.326 48.586C198.598 48.95 197.965 49.496 197.428 50.224C196.89 50.9347 196.535 51.784 196.362 52.772C196.292 53.1013 196.258 53.4567 196.258 53.838C196.258 55.0167 196.596 55.9527 197.272 56.646C197.965 57.322 198.823 57.66 199.846 57.66C200.608 57.66 201.354 57.4693 202.082 57.088C202.81 56.7067 203.442 56.152 203.98 55.424C204.517 54.6787 204.872 53.812 205.046 52.824ZM219.391 45.44C221.176 45.44 222.597 45.9427 223.655 46.948C224.729 47.9533 225.267 49.3053 225.267 51.004C225.267 51.4027 225.223 51.8793 225.137 52.434C225.067 52.8153 224.946 53.2833 224.773 53.838H213.827C213.809 53.9593 213.801 54.1413 213.801 54.384C213.801 55.4067 214.113 56.2213 214.737 56.828C215.378 57.4347 216.21 57.738 217.233 57.738C218.845 57.738 220.084 57.0707 220.951 55.736H224.149C223.49 57.0533 222.519 58.1367 221.237 58.986C219.954 59.818 218.472 60.234 216.791 60.234C215.595 60.234 214.546 60 213.645 59.532C212.743 59.064 212.041 58.3967 211.539 57.53C211.036 56.646 210.785 55.6147 210.785 54.436C210.785 53.9333 210.837 53.396 210.941 52.824C211.201 51.3507 211.729 50.0593 212.527 48.95C213.324 47.8233 214.312 46.9567 215.491 46.35C216.687 45.7433 217.987 45.44 219.391 45.44ZM222.173 51.706C222.207 51.394 222.225 51.1687 222.225 51.03C222.225 50.0767 221.904 49.3227 221.263 48.768C220.639 48.2133 219.824 47.936 218.819 47.936C217.761 47.936 216.808 48.274 215.959 48.95C215.109 49.626 214.529 50.5447 214.217 51.706H222.173ZM235.438 45.44C237.223 45.44 238.644 45.9427 239.702 46.948C240.776 47.9533 241.314 49.3053 241.314 51.004C241.314 51.4027 241.27 51.8793 241.184 52.434C241.114 52.8153 240.993 53.2833 240.82 53.838H229.874C229.856 53.9593 229.848 54.1413 229.848 54.384C229.848 55.4067 230.16 56.2213 230.784 56.828C231.425 57.4347 232.257 57.738 233.28 57.738C234.892 57.738 236.131 57.0707 236.998 55.736H240.196C239.537 57.0533 238.566 58.1367 237.284 58.986C236.001 59.818 234.519 60.234 232.838 60.234C231.642 60.234 230.593 60 229.692 59.532C228.79 59.064 228.088 58.3967 227.586 57.53C227.083 56.646 226.832 55.6147 226.832 54.436C226.832 53.9333 226.884 53.396 226.988 52.824C227.248 51.3507 227.776 50.0593 228.574 48.95C229.371 47.8233 230.359 46.9567 231.538 46.35C232.734 45.7433 234.034 45.44 235.438 45.44ZM238.22 51.706C238.254 51.394 238.272 51.1687 238.272 51.03C238.272 50.0767 237.951 49.3227 237.31 48.768C236.686 48.2133 235.871 47.936 234.866 47.936C233.808 47.936 232.855 48.274 232.006 48.95C231.156 49.626 230.576 50.5447 230.264 51.706H238.22ZM243.034 52.772C243.294 51.3333 243.814 50.0593 244.594 48.95C245.392 47.8407 246.362 46.9827 247.506 46.376C248.65 45.752 249.855 45.44 251.12 45.44C252.056 45.44 252.94 45.648 253.772 46.064C254.604 46.4627 255.237 47 255.67 47.676L256.892 40.76H259.882L256.476 60H253.486L253.876 57.842C253.252 58.5527 252.472 59.1333 251.536 59.584C250.618 60.0173 249.604 60.234 248.494 60.234C247.402 60.234 246.432 59.9913 245.582 59.506C244.733 59.0207 244.066 58.336 243.58 57.452C243.112 56.5507 242.878 55.5193 242.878 54.358C242.878 53.838 242.93 53.3093 243.034 52.772ZM254.76 52.824C254.83 52.4947 254.864 52.1393 254.864 51.758C254.864 50.5967 254.518 49.6867 253.824 49.028C253.148 48.352 252.299 48.014 251.276 48.014C250.514 48.014 249.768 48.2047 249.04 48.586C248.312 48.95 247.68 49.496 247.142 50.224C246.605 50.9347 246.25 51.784 246.076 52.772C246.007 53.1013 245.972 53.4567 245.972 53.838C245.972 55.0167 246.31 55.9527 246.986 56.646C247.68 57.322 248.538 57.66 249.56 57.66C250.323 57.66 251.068 57.4693 251.796 57.088C252.524 56.7067 253.157 56.152 253.694 55.424C254.232 54.6787 254.587 53.812 254.76 52.824ZM264.243 56.438L259.849 63.614H257.925L261.019 56.438H264.243ZM282.74 45.44C284.526 45.44 285.947 45.9427 287.004 46.948C288.079 47.9533 288.616 49.3053 288.616 51.004C288.616 51.4027 288.573 51.8793 288.486 52.434C288.417 52.8153 288.296 53.2833 288.122 53.838H277.176C277.159 53.9593 277.15 54.1413 277.15 54.384C277.15 55.4067 277.462 56.2213 278.086 56.828C278.728 57.4347 279.56 57.738 280.582 57.738C282.194 57.738 283.434 57.0707 284.3 55.736H287.498C286.84 57.0533 285.869 58.1367 284.586 58.986C283.304 59.818 281.822 60.234 280.14 60.234C278.944 60.234 277.896 60 276.994 59.532C276.093 59.064 275.391 58.3967 274.888 57.53C274.386 56.646 274.134 55.6147 274.134 54.436C274.134 53.9333 274.186 53.396 274.29 52.824C274.55 51.3507 275.079 50.0593 275.876 48.95C276.674 47.8233 277.662 46.9567 278.84 46.35C280.036 45.7433 281.336 45.44 282.74 45.44ZM285.522 51.706C285.557 51.394 285.574 51.1687 285.574 51.03C285.574 50.0767 285.254 49.3227 284.612 48.768C283.988 48.2133 283.174 47.936 282.168 47.936C281.111 47.936 280.158 48.274 279.308 48.95C278.459 49.626 277.878 50.5447 277.566 51.706H285.522ZM290.337 52.772C290.597 51.3333 291.117 50.0593 291.897 48.95C292.694 47.8407 293.665 46.9827 294.809 46.376C295.953 45.752 297.149 45.44 298.397 45.44C299.524 45.44 300.468 45.6653 301.231 46.116C301.994 46.5493 302.566 47.0953 302.947 47.754L303.311 45.674H306.301L303.779 60H300.789L301.179 57.868C300.555 58.544 299.766 59.1073 298.813 59.558C297.877 60.0087 296.854 60.234 295.745 60.234C294.67 60.234 293.708 59.9913 292.859 59.506C292.027 59.0207 291.368 58.336 290.883 57.452C290.415 56.5507 290.181 55.5193 290.181 54.358C290.181 53.838 290.233 53.3093 290.337 52.772ZM302.063 52.824C302.132 52.4947 302.167 52.1393 302.167 51.758C302.167 50.5967 301.82 49.6867 301.127 49.028C300.451 48.352 299.602 48.014 298.579 48.014C297.816 48.014 297.071 48.2047 296.343 48.586C295.615 48.95 294.982 49.496 294.445 50.224C293.908 50.9347 293.552 51.784 293.379 52.772C293.31 53.1013 293.275 53.4567 293.275 53.838C293.275 55.0167 293.613 55.9527 294.289 56.646C294.982 57.322 295.84 57.66 296.863 57.66C297.626 57.66 298.371 57.4693 299.099 57.088C299.827 56.7067 300.46 56.152 300.997 55.424C301.534 54.6787 301.89 53.812 302.063 52.824ZM307.958 52.824C308.218 51.3507 308.738 50.0593 309.518 48.95C310.316 47.8233 311.295 46.9567 312.456 46.35C313.635 45.7433 314.909 45.44 316.278 45.44C318.012 45.44 319.372 45.856 320.36 46.688C321.348 47.5027 321.912 48.6727 322.05 50.198H318.852C318.714 49.4873 318.393 48.9327 317.89 48.534C317.388 48.1353 316.703 47.936 315.836 47.936C314.623 47.936 313.583 48.3693 312.716 49.236C311.85 50.0853 311.278 51.2813 311 52.824C310.914 53.3787 310.87 53.8293 310.87 54.176C310.87 55.32 311.156 56.204 311.728 56.828C312.3 57.4347 313.098 57.738 314.12 57.738C315.836 57.738 317.102 56.984 317.916 55.476H321.114C320.438 56.932 319.45 58.0933 318.15 58.96C316.868 59.8093 315.377 60.234 313.678 60.234C311.876 60.234 310.446 59.7227 309.388 58.7C308.331 57.66 307.802 56.256 307.802 54.488C307.802 53.9507 307.854 53.396 307.958 52.824ZM333.246 45.44C334.685 45.44 335.837 45.8473 336.704 46.662C337.571 47.4593 338.004 48.6033 338.004 50.094C338.004 50.4927 337.961 50.978 337.874 51.55L336.366 60H333.428L334.858 51.992C334.927 51.5067 334.962 51.16 334.962 50.952C334.962 49.9987 334.693 49.2707 334.156 48.768C333.636 48.2653 332.908 48.014 331.972 48.014C330.845 48.014 329.892 48.3607 329.112 49.054C328.349 49.73 327.864 50.7093 327.656 51.992V51.94L326.226 60H323.262L326.668 40.76H329.632L328.462 47.338C329.069 46.7313 329.788 46.2633 330.62 45.934C331.452 45.6047 332.327 45.44 333.246 45.44ZM353.22 60.234C352.232 60.234 351.33 60.0693 350.516 59.74C349.701 59.3933 349.06 58.9167 348.592 58.31C348.124 57.686 347.89 56.9753 347.89 56.178C347.89 56.0393 347.907 55.8487 347.942 55.606H350.828C350.758 56.2647 350.958 56.8107 351.426 57.244C351.894 57.6773 352.552 57.894 353.402 57.894C354.234 57.894 354.918 57.7467 355.456 57.452C355.993 57.1573 356.262 56.724 356.262 56.152C356.262 55.6667 356.036 55.2767 355.586 54.982C355.152 54.6873 354.45 54.358 353.48 53.994C352.561 53.63 351.816 53.292 351.244 52.98C350.672 52.668 350.178 52.2433 349.762 51.706C349.346 51.1513 349.138 50.4667 349.138 49.652C349.138 48.82 349.372 48.092 349.84 47.468C350.325 46.8267 350.992 46.3327 351.842 45.986C352.708 45.622 353.696 45.44 354.806 45.44C355.811 45.44 356.704 45.6133 357.484 45.96C358.281 46.2893 358.896 46.766 359.33 47.39C359.78 47.9967 360.006 48.6987 360.006 49.496C360.006 49.7387 359.997 49.9207 359.98 50.042H357.172C357.241 49.366 357.042 48.82 356.574 48.404C356.123 47.988 355.473 47.78 354.624 47.78C353.878 47.78 353.272 47.936 352.804 48.248C352.353 48.56 352.128 48.9847 352.128 49.522C352.128 50.0593 352.362 50.4927 352.83 50.822C353.298 51.134 354.017 51.4807 354.988 51.862C355.872 52.2087 356.591 52.538 357.146 52.85C357.7 53.162 358.177 53.578 358.576 54.098C358.974 54.618 359.174 55.268 359.174 56.048C359.174 56.8973 358.914 57.6427 358.394 58.284C357.891 58.908 357.189 59.3933 356.288 59.74C355.386 60.0693 354.364 60.234 353.22 60.234ZM365.99 56.022C365.956 56.2647 365.938 56.4207 365.938 56.49C365.938 56.854 366.051 57.1227 366.276 57.296C366.502 57.452 366.874 57.53 367.394 57.53H369.214L368.772 60H366.432C365.288 60 364.413 59.7747 363.806 59.324C363.2 58.856 362.896 58.1193 362.896 57.114C362.896 56.7327 362.931 56.3687 363 56.022L364.404 48.092H362.714L363.13 45.674H364.846L365.47 42.112H368.46L367.836 45.674H371.294L370.878 48.092H367.394L365.99 56.022ZM377.77 60.234C376.557 60.234 375.491 59.9827 374.572 59.48C373.654 58.9773 372.934 58.2667 372.414 57.348C371.912 56.4293 371.66 55.3807 371.66 54.202C371.66 52.59 372.033 51.1167 372.778 49.782C373.541 48.4473 374.581 47.39 375.898 46.61C377.233 45.83 378.715 45.44 380.344 45.44C381.558 45.44 382.632 45.7 383.568 46.22C384.504 46.7227 385.232 47.4333 385.752 48.352C386.29 49.2533 386.558 50.302 386.558 51.498C386.558 53.11 386.168 54.5833 385.388 55.918C384.608 57.2527 383.551 58.31 382.216 59.09C380.882 59.8527 379.4 60.234 377.77 60.234ZM378.134 57.738C379.122 57.738 380.024 57.4607 380.838 56.906C381.67 56.334 382.32 55.5887 382.788 54.67C383.256 53.734 383.49 52.7373 383.49 51.68C383.49 50.484 383.152 49.5653 382.476 48.924C381.8 48.2653 380.951 47.936 379.928 47.936C378.923 47.936 378.022 48.222 377.224 48.794C376.444 49.3487 375.829 50.1027 375.378 51.056C374.945 51.992 374.728 52.9973 374.728 54.072C374.728 55.2333 375.04 56.1347 375.664 56.776C376.306 57.4173 377.129 57.738 378.134 57.738ZM394.454 40.76L391.048 60H388.084L391.49 40.76H394.454ZM403.676 45.44C405.461 45.44 406.882 45.9427 407.94 46.948C409.014 47.9533 409.552 49.3053 409.552 51.004C409.552 51.4027 409.508 51.8793 409.422 52.434C409.352 52.8153 409.231 53.2833 409.058 53.838H398.112C398.094 53.9593 398.086 54.1413 398.086 54.384C398.086 55.4067 398.398 56.2213 399.022 56.828C399.663 57.4347 400.495 57.738 401.518 57.738C403.13 57.738 404.369 57.0707 405.236 55.736H408.434C407.775 57.0533 406.804 58.1367 405.522 58.986C404.239 59.818 402.757 60.234 401.076 60.234C399.88 60.234 398.831 60 397.93 59.532C397.028 59.064 396.326 58.3967 395.824 57.53C395.321 56.646 395.07 55.6147 395.07 54.436C395.07 53.9333 395.122 53.396 395.226 52.824C395.486 51.3507 396.014 50.0593 396.812 48.95C397.609 47.8233 398.597 46.9567 399.776 46.35C400.972 45.7433 402.272 45.44 403.676 45.44ZM406.458 51.706C406.492 51.394 406.51 51.1687 406.51 51.03C406.51 50.0767 406.189 49.3227 405.548 48.768C404.924 48.2133 404.109 47.936 403.104 47.936C402.046 47.936 401.093 48.274 400.244 48.95C399.394 49.626 398.814 50.5447 398.502 51.706H406.458ZM420.789 45.44C422.297 45.44 423.493 45.8473 424.377 46.662C425.278 47.4593 425.729 48.612 425.729 50.12C425.729 50.5013 425.685 50.978 425.599 51.55L424.091 60H421.153L422.583 51.992C422.652 51.5067 422.687 51.16 422.687 50.952C422.687 49.9987 422.418 49.2707 421.881 48.768C421.361 48.2653 420.633 48.014 419.697 48.014C418.57 48.014 417.617 48.3607 416.837 49.054C416.074 49.73 415.589 50.7093 415.381 51.992V51.914L413.951 60H410.987L413.509 45.674H416.473L416.187 47.338C416.776 46.7487 417.469 46.2893 418.267 45.96C419.081 45.6133 419.922 45.44 420.789 45.44ZM440.71 48.196C441.3 47.3293 441.993 46.6533 442.79 46.168C443.605 45.6827 444.506 45.44 445.494 45.44L444.948 48.508H444.194C443.05 48.508 442.132 48.794 441.438 49.366C440.745 49.938 440.26 50.926 439.982 52.33L438.63 60H435.666L438.188 45.674H441.152L440.71 48.196ZM450.013 43.776C449.545 43.776 449.164 43.6287 448.869 43.334C448.574 43.0393 448.427 42.6667 448.427 42.216C448.427 41.6093 448.652 41.0893 449.103 40.656C449.571 40.2053 450.1 39.98 450.689 39.98C451.157 39.98 451.53 40.1273 451.807 40.422C452.102 40.7167 452.249 41.0893 452.249 41.54C452.249 42.1467 452.024 42.6753 451.573 43.126C451.122 43.5593 450.602 43.776 450.013 43.776ZM451.131 45.674L448.609 60H445.645L448.167 45.674H451.131ZM460.846 45.44C461.956 45.44 462.9 45.6653 463.68 46.116C464.478 46.5493 465.05 47.0953 465.396 47.754L465.76 45.674H468.75L466.202 60.234C465.96 61.5513 465.474 62.7213 464.746 63.744C464.018 64.784 463.074 65.5987 461.912 66.188C460.751 66.7773 459.442 67.072 457.986 67.072C456.721 67.072 455.612 66.864 454.658 66.448C453.705 66.0493 452.986 65.4687 452.5 64.706C452.015 63.9433 451.807 63.042 451.876 62.002H454.814C454.901 62.7473 455.274 63.3453 455.932 63.796C456.591 64.264 457.432 64.498 458.454 64.498C459.65 64.498 460.682 64.134 461.548 63.406C462.415 62.678 462.97 61.6207 463.212 60.234L463.628 57.842C463.004 58.518 462.224 59.09 461.288 59.558C460.352 60.0087 459.338 60.234 458.246 60.234C457.154 60.234 456.184 59.9913 455.334 59.506C454.485 59.0207 453.818 58.336 453.332 57.452C452.864 56.5507 452.63 55.5193 452.63 54.358C452.63 53.838 452.682 53.3093 452.786 52.772C453.046 51.3333 453.566 50.0593 454.346 48.95C455.144 47.8407 456.114 46.9827 457.258 46.376C458.402 45.752 459.598 45.44 460.846 45.44ZM464.512 52.824C464.582 52.4947 464.616 52.1393 464.616 51.758C464.616 50.5967 464.27 49.6867 463.576 49.028C462.9 48.352 462.051 48.014 461.028 48.014C460.266 48.014 459.52 48.2047 458.792 48.586C458.064 48.95 457.432 49.496 456.894 50.224C456.357 50.9347 456.002 51.784 455.828 52.772C455.759 53.1013 455.724 53.4567 455.724 53.838C455.724 55.0167 456.062 55.9527 456.738 56.646C457.432 57.322 458.29 57.66 459.312 57.66C460.075 57.66 460.82 57.4693 461.548 57.088C462.276 56.7067 462.909 56.152 463.446 55.424C463.984 54.6787 464.339 53.812 464.512 52.824ZM480.105 45.44C481.544 45.44 482.697 45.8473 483.563 46.662C484.43 47.4593 484.863 48.6033 484.863 50.094C484.863 50.4927 484.82 50.978 484.733 51.55L483.225 60H480.287L481.717 51.992C481.787 51.5067 481.821 51.16 481.821 50.952C481.821 49.9987 481.553 49.2707 481.015 48.768C480.495 48.2653 479.767 48.014 478.831 48.014C477.705 48.014 476.751 48.3607 475.971 49.054C475.209 49.73 474.723 50.7093 474.515 51.992V51.94L473.085 60H470.121L473.527 40.76H476.491L475.321 47.338C475.928 46.7313 476.647 46.2633 477.479 45.934C478.311 45.6047 479.187 45.44 480.105 45.44ZM491.166 56.022C491.132 56.2647 491.114 56.4207 491.114 56.49C491.114 56.854 491.227 57.1227 491.452 57.296C491.678 57.452 492.05 57.53 492.57 57.53H494.39L493.948 60H491.608C490.464 60 489.589 59.7747 488.982 59.324C488.376 58.856 488.072 58.1193 488.072 57.114C488.072 56.7327 488.107 56.3687 488.176 56.022L489.58 48.092H487.89L488.306 45.674H490.022L490.646 42.112H493.636L493.012 45.674H496.47L496.054 48.092H492.57L491.166 56.022ZM497.85 60.182C497.382 60.182 497.001 60.0347 496.706 59.74C496.411 59.4453 496.264 59.0727 496.264 58.622C496.264 58.0153 496.489 57.4953 496.94 57.062C497.408 56.6113 497.937 56.386 498.526 56.386C498.994 56.386 499.367 56.5333 499.644 56.828C499.939 57.1227 500.086 57.4953 500.086 57.946C500.086 58.5527 499.861 59.0813 499.41 59.532C498.959 59.9653 498.439 60.182 497.85 60.182ZM7.15 99.182C6.04067 99.182 5.044 99.0087 4.16 98.662C3.276 98.298 2.574 97.778 2.054 97.102C1.534 96.4087 1.274 95.594 1.274 94.658C1.274 94.5367 1.29133 94.32 1.326 94.008H4.264C4.19467 94.8053 4.42867 95.4727 4.966 96.01C5.50333 96.53 6.27467 96.79 7.28 96.79C8.35467 96.79 9.19533 96.5733 9.802 96.14C10.4087 95.6893 10.712 95.048 10.712 94.216C10.712 93.7133 10.556 93.2887 10.244 92.942C9.94933 92.578 9.568 92.2747 9.1 92.032C8.64933 91.7893 8.01667 91.5033 7.202 91.174C6.12733 90.7233 5.26933 90.316 4.628 89.952C3.98667 89.588 3.432 89.0853 2.964 88.444C2.51333 87.8027 2.288 86.9967 2.288 86.026C2.288 84.9513 2.56533 84.0153 3.12 83.218C3.67467 82.4033 4.43733 81.7793 5.408 81.346C6.396 80.9127 7.50533 80.696 8.736 80.696C9.96667 80.696 11.024 80.904 11.908 81.32C12.8093 81.7187 13.4853 82.2907 13.936 83.036C14.404 83.764 14.612 84.622 14.56 85.61H11.44C11.5093 84.8993 11.2927 84.31 10.79 83.842C10.2873 83.3567 9.55933 83.114 8.606 83.114C7.60067 83.114 6.79467 83.348 6.188 83.816C5.59867 84.2667 5.304 84.882 5.304 85.662C5.304 86.1473 5.45133 86.572 5.746 86.936C6.058 87.2827 6.448 87.586 6.916 87.846C7.384 88.0887 8.01667 88.3833 8.814 88.73C9.88867 89.2153 10.7467 89.6487 11.388 90.03C12.0467 90.4113 12.61 90.9313 13.078 91.59C13.546 92.2313 13.78 93.0287 13.78 93.982C13.78 94.9873 13.5027 95.8887 12.948 96.686C12.3933 97.466 11.6133 98.0813 10.608 98.532C9.60267 98.9653 8.45 99.182 7.15 99.182ZM22.4285 99.234C21.2151 99.234 20.1491 98.9827 19.2305 98.48C18.3118 97.9773 17.5925 97.2667 17.0725 96.348C16.5698 95.4293 16.3185 94.3807 16.3185 93.202C16.3185 91.59 16.6911 90.1167 17.4365 88.782C18.1991 87.4473 19.2391 86.39 20.5565 85.61C21.8911 84.83 23.3731 84.44 25.0025 84.44C26.2158 84.44 27.2905 84.7 28.2265 85.22C29.1625 85.7227 29.8905 86.4333 30.4105 87.352C30.9478 88.2533 31.2165 89.302 31.2165 90.498C31.2165 92.11 30.8265 93.5833 30.0465 94.918C29.2665 96.2527 28.2091 97.31 26.8745 98.09C25.5398 98.8527 24.0578 99.234 22.4285 99.234ZM22.7925 96.738C23.7805 96.738 24.6818 96.4607 25.4965 95.906C26.3285 95.334 26.9785 94.5887 27.4465 93.67C27.9145 92.734 28.1485 91.7373 28.1485 90.68C28.1485 89.484 27.8105 88.5653 27.1345 87.924C26.4585 87.2653 25.6091 86.936 24.5865 86.936C23.5811 86.936 22.6798 87.222 21.8825 87.794C21.1025 88.3487 20.4871 89.1027 20.0365 90.056C19.6031 90.992 19.3865 91.9973 19.3865 93.072C19.3865 94.2333 19.6985 95.1347 20.3225 95.776C20.9638 96.4173 21.7871 96.738 22.7925 96.738ZM39.0085 99.234C37.7952 99.234 36.7292 98.9827 35.8105 98.48C34.8919 97.9773 34.1725 97.2667 33.6525 96.348C33.1499 95.4293 32.8985 94.3807 32.8985 93.202C32.8985 91.59 33.2712 90.1167 34.0165 88.782C34.7792 87.4473 35.8192 86.39 37.1365 85.61C38.4712 84.83 39.9532 84.44 41.5825 84.44C42.7959 84.44 43.8705 84.7 44.8065 85.22C45.7425 85.7227 46.4705 86.4333 46.9905 87.352C47.5279 88.2533 47.7965 89.302 47.7965 90.498C47.7965 92.11 47.4065 93.5833 46.6265 94.918C45.8465 96.2527 44.7892 97.31 43.4545 98.09C42.1199 98.8527 40.6379 99.234 39.0085 99.234ZM39.3725 96.738C40.3605 96.738 41.2619 96.4607 42.0765 95.906C42.9085 95.334 43.5585 94.5887 44.0265 93.67C44.4945 92.734 44.7285 91.7373 44.7285 90.68C44.7285 89.484 44.3905 88.5653 43.7145 87.924C43.0385 87.2653 42.1892 86.936 41.1665 86.936C40.1612 86.936 39.2599 87.222 38.4625 87.794C37.6825 88.3487 37.0672 89.1027 36.6165 90.056C36.1832 90.992 35.9665 91.9973 35.9665 93.072C35.9665 94.2333 36.2785 95.1347 36.9025 95.776C37.5439 96.4173 38.3672 96.738 39.3725 96.738ZM59.1246 84.44C60.6326 84.44 61.8286 84.8473 62.7126 85.662C63.6139 86.4593 64.0646 87.612 64.0646 89.12C64.0646 89.5013 64.0213 89.978 63.9346 90.55L62.4266 99H59.4886L60.9186 90.992C60.9879 90.5067 61.0226 90.16 61.0226 89.952C61.0226 88.9987 60.7539 88.2707 60.2166 87.768C59.6966 87.2653 58.9686 87.014 58.0326 87.014C56.9059 87.014 55.9526 87.3607 55.1726 88.054C54.4099 88.73 53.9246 89.7093 53.7166 90.992V90.914L52.2866 99H49.3226L51.8446 84.674H54.8086L54.5226 86.338C55.1119 85.7487 55.8053 85.2893 56.6026 84.96C57.4173 84.6133 58.2579 84.44 59.1246 84.44ZM79.2803 99.234C78.2923 99.234 77.391 99.0693 76.5763 98.74C75.7616 98.3933 75.1203 97.9167 74.6523 97.31C74.1843 96.686 73.9503 95.9753 73.9503 95.178C73.9503 95.0393 73.9676 94.8487 74.0023 94.606H76.8883C76.819 95.2647 77.0183 95.8107 77.4863 96.244C77.9543 96.6773 78.613 96.894 79.4623 96.894C80.2943 96.894 80.979 96.7467 81.5163 96.452C82.0536 96.1573 82.3223 95.724 82.3223 95.152C82.3223 94.6667 82.097 94.2767 81.6463 93.982C81.213 93.6873 80.511 93.358 79.5403 92.994C78.6216 92.63 77.8763 92.292 77.3043 91.98C76.7323 91.668 76.2383 91.2433 75.8223 90.706C75.4063 90.1513 75.1983 89.4667 75.1983 88.652C75.1983 87.82 75.4323 87.092 75.9003 86.468C76.3856 85.8267 77.053 85.3327 77.9023 84.986C78.769 84.622 79.757 84.44 80.8663 84.44C81.8716 84.44 82.7643 84.6133 83.5443 84.96C84.3416 85.2893 84.957 85.766 85.3903 86.39C85.841 86.9967 86.0663 87.6987 86.0663 88.496C86.0663 88.7387 86.0576 88.9207 86.0403 89.042H83.2323C83.3016 88.366 83.1023 87.82 82.6343 87.404C82.1836 86.988 81.5336 86.78 80.6843 86.78C79.939 86.78 79.3323 86.936 78.8643 87.248C78.4136 87.56 78.1883 87.9847 78.1883 88.522C78.1883 89.0593 78.4223 89.4927 78.8903 89.822C79.3583 90.134 80.0776 90.4807 81.0483 90.862C81.9323 91.2087 82.6516 91.538 83.2063 91.85C83.761 92.162 84.2376 92.578 84.6363 93.098C85.035 93.618 85.2343 94.268 85.2343 95.048C85.2343 95.8973 84.9743 96.6427 84.4543 97.284C83.9516 97.908 83.2496 98.3933 82.3483 98.74C81.447 99.0693 80.4243 99.234 79.2803 99.234ZM97.875 84.44C99.3136 84.44 100.466 84.8473 101.333 85.662C102.2 86.4593 102.633 87.6033 102.633 89.094C102.633 89.4927 102.59 89.978 102.503 90.55L100.995 99H98.057L99.487 90.992C99.5563 90.5067 99.591 90.16 99.591 89.952C99.591 88.9987 99.3223 88.2707 98.785 87.768C98.265 87.2653 97.537 87.014 96.601 87.014C95.4743 87.014 94.521 87.3607 93.741 88.054C92.9783 88.73 92.493 89.7093 92.285 90.992V90.94L90.855 99H87.891L91.297 79.76H94.261L93.091 86.338C93.6976 85.7313 94.417 85.2633 95.249 84.934C96.081 84.6047 96.9563 84.44 97.875 84.44ZM105.062 91.772C105.322 90.3333 105.842 89.0593 106.622 87.95C107.419 86.8407 108.39 85.9827 109.534 85.376C110.678 84.752 111.874 84.44 113.122 84.44C114.248 84.44 115.193 84.6653 115.956 85.116C116.718 85.5493 117.29 86.0953 117.672 86.754L118.036 84.674H121.026L118.504 99H115.514L115.904 96.868C115.28 97.544 114.491 98.1073 113.538 98.558C112.602 99.0087 111.579 99.234 110.47 99.234C109.395 99.234 108.433 98.9913 107.584 98.506C106.752 98.0207 106.093 97.336 105.608 96.452C105.14 95.5507 104.906 94.5193 104.906 93.358C104.906 92.838 104.958 92.3093 105.062 91.772ZM116.788 91.824C116.857 91.4947 116.892 91.1393 116.892 90.758C116.892 89.5967 116.545 88.6867 115.852 88.028C115.176 87.352 114.326 87.014 113.304 87.014C112.541 87.014 111.796 87.2047 111.068 87.586C110.34 87.95 109.707 88.496 109.17 89.224C108.632 89.9347 108.277 90.784 108.104 91.772C108.034 92.1013 108 92.4567 108 92.838C108 94.0167 108.338 94.9527 109.014 95.646C109.707 96.322 110.565 96.66 111.588 96.66C112.35 96.66 113.096 96.4693 113.824 96.088C114.552 95.7067 115.184 95.152 115.722 94.424C116.259 93.6787 116.614 92.812 116.788 91.824ZM128.767 79.76L125.361 99H122.397L125.803 79.76H128.767ZM135.622 79.76L132.216 99H129.252L132.658 79.76H135.622ZM148.271 82.776C147.803 82.776 147.421 82.6287 147.127 82.334C146.832 82.0393 146.685 81.6667 146.685 81.216C146.685 80.6093 146.91 80.0893 147.361 79.656C147.829 79.2053 148.357 78.98 148.947 78.98C149.415 78.98 149.787 79.1273 150.065 79.422C150.359 79.7167 150.507 80.0893 150.507 80.54C150.507 81.1467 150.281 81.6753 149.831 82.126C149.38 82.5593 148.86 82.776 148.271 82.776ZM149.389 84.674L146.867 99H143.903L146.425 84.674H149.389ZM154.918 95.022C154.883 95.2647 154.866 95.4207 154.866 95.49C154.866 95.854 154.979 96.1227 155.204 96.296C155.429 96.452 155.802 96.53 156.322 96.53H158.142L157.7 99H155.36C154.216 99 153.341 98.7747 152.734 98.324C152.127 97.856 151.824 97.1193 151.824 96.114C151.824 95.7327 151.859 95.3687 151.928 95.022L153.332 87.092H151.642L152.058 84.674H153.774L154.398 81.112H157.388L156.764 84.674H160.222L159.806 87.092H156.322L154.918 95.022ZM173.271 87.196C173.86 86.3293 174.554 85.6533 175.351 85.168C176.166 84.6827 177.067 84.44 178.055 84.44L177.509 87.508H176.755C175.611 87.508 174.692 87.794 173.999 88.366C173.306 88.938 172.82 89.926 172.543 91.33L171.191 99H168.227L170.749 84.674H173.713L173.271 87.196ZM182.573 82.776C182.105 82.776 181.724 82.6287 181.429 82.334C181.135 82.0393 180.987 81.6667 180.987 81.216C180.987 80.6093 181.213 80.0893 181.663 79.656C182.131 79.2053 182.66 78.98 183.249 78.98C183.717 78.98 184.09 79.1273 184.367 79.422C184.662 79.7167 184.809 80.0893 184.809 80.54C184.809 81.1467 184.584 81.6753 184.133 82.126C183.683 82.5593 183.163 82.776 182.573 82.776ZM183.691 84.674L181.169 99H178.205L180.727 84.674H183.691ZM190.339 99.234C189.351 99.234 188.45 99.0693 187.635 98.74C186.82 98.3933 186.179 97.9167 185.711 97.31C185.243 96.686 185.009 95.9753 185.009 95.178C185.009 95.0393 185.026 94.8487 185.061 94.606H187.947C187.878 95.2647 188.077 95.8107 188.545 96.244C189.013 96.6773 189.672 96.894 190.521 96.894C191.353 96.894 192.038 96.7467 192.575 96.452C193.112 96.1573 193.381 95.724 193.381 95.152C193.381 94.6667 193.156 94.2767 192.705 93.982C192.272 93.6873 191.57 93.358 190.599 92.994C189.68 92.63 188.935 92.292 188.363 91.98C187.791 91.668 187.297 91.2433 186.881 90.706C186.465 90.1513 186.257 89.4667 186.257 88.652C186.257 87.82 186.491 87.092 186.959 86.468C187.444 85.8267 188.112 85.3327 188.961 84.986C189.828 84.622 190.816 84.44 191.925 84.44C192.93 84.44 193.823 84.6133 194.603 84.96C195.4 85.2893 196.016 85.766 196.449 86.39C196.9 86.9967 197.125 87.6987 197.125 88.496C197.125 88.7387 197.116 88.9207 197.099 89.042H194.291C194.36 88.366 194.161 87.82 193.693 87.404C193.242 86.988 192.592 86.78 191.743 86.78C190.998 86.78 190.391 86.936 189.923 87.248C189.472 87.56 189.247 87.9847 189.247 88.522C189.247 89.0593 189.481 89.4927 189.949 89.822C190.417 90.134 191.136 90.4807 192.107 90.862C192.991 91.2087 193.71 91.538 194.265 91.85C194.82 92.162 195.296 92.578 195.695 93.098C196.094 93.618 196.293 94.268 196.293 95.048C196.293 95.8973 196.033 96.6427 195.513 97.284C195.01 97.908 194.308 98.3933 193.407 98.74C192.506 99.0693 191.483 99.234 190.339 99.234ZM207.686 84.44C209.471 84.44 210.892 84.9427 211.95 85.948C213.024 86.9533 213.562 88.3053 213.562 90.004C213.562 90.4027 213.518 90.8793 213.432 91.434C213.362 91.8153 213.241 92.2833 213.068 92.838H202.122C202.104 92.9593 202.096 93.1413 202.096 93.384C202.096 94.4067 202.408 95.2213 203.032 95.828C203.673 96.4347 204.505 96.738 205.528 96.738C207.14 96.738 208.379 96.0707 209.246 94.736H212.444C211.785 96.0533 210.814 97.1367 209.532 97.986C208.249 98.818 206.767 99.234 205.086 99.234C203.89 99.234 202.841 99 201.94 98.532C201.038 98.064 200.336 97.3967 199.834 96.53C199.331 95.646 199.08 94.6147 199.08 93.436C199.08 92.9333 199.132 92.396 199.236 91.824C199.496 90.3507 200.024 89.0593 200.822 87.95C201.619 86.8233 202.607 85.9567 203.786 85.35C204.982 84.7433 206.282 84.44 207.686 84.44ZM210.468 90.706C210.502 90.394 210.52 90.1687 210.52 90.03C210.52 89.0767 210.199 88.3227 209.558 87.768C208.934 87.2133 208.119 86.936 207.114 86.936C206.056 86.936 205.103 87.274 204.254 87.95C203.404 88.626 202.824 89.5447 202.512 90.706H210.468ZM218.87 95.438L214.476 102.614H212.552L215.646 95.438H218.87ZM238.433 84.44C239.941 84.44 241.137 84.8473 242.021 85.662C242.923 86.4593 243.373 87.612 243.373 89.12C243.373 89.5013 243.33 89.978 243.243 90.55L241.735 99H238.797L240.227 90.992C240.297 90.5067 240.331 90.16 240.331 89.952C240.331 88.9987 240.063 88.2707 239.525 87.768C239.005 87.2653 238.277 87.014 237.341 87.014C236.215 87.014 235.261 87.3607 234.481 88.054C233.719 88.73 233.233 89.7093 233.025 90.992V90.914L231.595 99H228.631L231.153 84.674H234.117L233.831 86.338C234.421 85.7487 235.114 85.2893 235.911 84.96C236.726 84.6133 237.567 84.44 238.433 84.44ZM251.782 99.234C250.569 99.234 249.503 98.9827 248.584 98.48C247.665 97.9773 246.946 97.2667 246.426 96.348C245.923 95.4293 245.672 94.3807 245.672 93.202C245.672 91.59 246.045 90.1167 246.79 88.782C247.553 87.4473 248.593 86.39 249.91 85.61C251.245 84.83 252.727 84.44 254.356 84.44C255.569 84.44 256.644 84.7 257.58 85.22C258.516 85.7227 259.244 86.4333 259.764 87.352C260.301 88.2533 260.57 89.302 260.57 90.498C260.57 92.11 260.18 93.5833 259.4 94.918C258.62 96.2527 257.563 97.31 256.228 98.09C254.893 98.8527 253.411 99.234 251.782 99.234ZM252.146 96.738C253.134 96.738 254.035 96.4607 254.85 95.906C255.682 95.334 256.332 94.5887 256.8 93.67C257.268 92.734 257.502 91.7373 257.502 90.68C257.502 89.484 257.164 88.5653 256.488 87.924C255.812 87.2653 254.963 86.936 253.94 86.936C252.935 86.936 252.033 87.222 251.236 87.794C250.456 88.3487 249.841 89.1027 249.39 90.056C248.957 90.992 248.74 91.9973 248.74 93.072C248.74 94.2333 249.052 95.1347 249.676 95.776C250.317 96.4173 251.141 96.738 252.146 96.738ZM289.807 84.44C291.315 84.44 292.52 84.8473 293.421 85.662C294.322 86.4767 294.773 87.6293 294.773 89.12C294.773 89.5187 294.73 89.9953 294.643 90.55L293.135 99H290.197L291.627 90.992C291.696 90.5067 291.731 90.16 291.731 89.952C291.731 88.9987 291.462 88.2707 290.925 87.768C290.405 87.2653 289.677 87.014 288.741 87.014C287.614 87.014 286.661 87.3607 285.881 88.054C285.118 88.73 284.633 89.7093 284.425 90.992L282.995 99H280.057L281.487 90.992C281.556 90.5067 281.591 90.16 281.591 89.952C281.591 88.9987 281.322 88.2707 280.785 87.768C280.265 87.2653 279.537 87.014 278.601 87.014C277.474 87.014 276.521 87.3607 275.741 88.054C274.978 88.73 274.493 89.7093 274.285 90.992V90.914L272.855 99H269.891L272.413 84.674H275.377L275.091 86.338C275.663 85.7487 276.348 85.2893 277.145 84.96C277.96 84.6133 278.8 84.44 279.667 84.44C280.811 84.44 281.79 84.6827 282.605 85.168C283.437 85.6533 284.018 86.3553 284.347 87.274C284.919 86.4073 285.708 85.7227 286.713 85.22C287.718 84.7 288.75 84.44 289.807 84.44ZM303.173 99.234C301.959 99.234 300.893 98.9827 299.975 98.48C299.056 97.9773 298.337 97.2667 297.817 96.348C297.314 95.4293 297.063 94.3807 297.063 93.202C297.063 91.59 297.435 90.1167 298.181 88.782C298.943 87.4473 299.983 86.39 301.301 85.61C302.635 84.83 304.117 84.44 305.747 84.44C306.96 84.44 308.035 84.7 308.971 85.22C309.907 85.7227 310.635 86.4333 311.155 87.352C311.692 88.2533 311.961 89.302 311.961 90.498C311.961 92.11 311.571 93.5833 310.791 94.918C310.011 96.2527 308.953 97.31 307.619 98.09C306.284 98.8527 304.802 99.234 303.173 99.234ZM303.537 96.738C304.525 96.738 305.426 96.4607 306.241 95.906C307.073 95.334 307.723 94.5887 308.191 93.67C308.659 92.734 308.893 91.7373 308.893 90.68C308.893 89.484 308.555 88.5653 307.879 87.924C307.203 87.2653 306.353 86.936 305.331 86.936C304.325 86.936 303.424 87.222 302.627 87.794C301.847 88.3487 301.231 89.1027 300.781 90.056C300.347 90.992 300.131 91.9973 300.131 93.072C300.131 94.2333 300.443 95.1347 301.067 95.776C301.708 96.4173 302.531 96.738 303.537 96.738ZM318.531 87.196C319.12 86.3293 319.813 85.6533 320.611 85.168C321.425 84.6827 322.327 84.44 323.315 84.44L322.769 87.508H322.015C320.871 87.508 319.952 87.794 319.259 88.366C318.565 88.938 318.08 89.926 317.803 91.33L316.451 99H313.487L316.009 84.674H318.973L318.531 87.196ZM332.201 84.44C333.987 84.44 335.408 84.9427 336.465 85.948C337.54 86.9533 338.077 88.3053 338.077 90.004C338.077 90.4027 338.034 90.8793 337.947 91.434C337.878 91.8153 337.757 92.2833 337.583 92.838H326.637C326.62 92.9593 326.611 93.1413 326.611 93.384C326.611 94.4067 326.923 95.2213 327.547 95.828C328.189 96.4347 329.021 96.738 330.043 96.738C331.655 96.738 332.895 96.0707 333.761 94.736H336.959C336.301 96.0533 335.33 97.1367 334.047 97.986C332.765 98.818 331.283 99.234 329.601 99.234C328.405 99.234 327.357 99 326.455 98.532C325.554 98.064 324.852 97.3967 324.349 96.53C323.847 95.646 323.595 94.6147 323.595 93.436C323.595 92.9333 323.647 92.396 323.751 91.824C324.011 90.3507 324.54 89.0593 325.337 87.95C326.135 86.8233 327.123 85.9567 328.301 85.35C329.497 84.7433 330.797 84.44 332.201 84.44ZM334.983 90.706C335.018 90.394 335.035 90.1687 335.035 90.03C335.035 89.0767 334.715 88.3227 334.073 87.768C333.449 87.2133 332.635 86.936 331.629 86.936C330.572 86.936 329.619 87.274 328.769 87.95C327.92 88.626 327.339 89.5447 327.027 90.706H334.983ZM351.467 95.022C351.432 95.2647 351.415 95.4207 351.415 95.49C351.415 95.854 351.528 96.1227 351.753 96.296C351.978 96.452 352.351 96.53 352.871 96.53H354.691L354.249 99H351.909C350.765 99 349.89 98.7747 349.283 98.324C348.676 97.856 348.373 97.1193 348.373 96.114C348.373 95.7327 348.408 95.3687 348.477 95.022L349.881 87.092H348.191L348.607 84.674H350.323L350.947 81.112H353.937L353.313 84.674H356.771L356.355 87.092H352.871L351.467 95.022ZM363.247 99.234C362.033 99.234 360.967 98.9827 360.049 98.48C359.13 97.9773 358.411 97.2667 357.891 96.348C357.388 95.4293 357.137 94.3807 357.137 93.202C357.137 91.59 357.509 90.1167 358.255 88.782C359.017 87.4473 360.057 86.39 361.375 85.61C362.709 84.83 364.191 84.44 365.821 84.44C367.034 84.44 368.109 84.7 369.045 85.22C369.981 85.7227 370.709 86.4333 371.229 87.352C371.766 88.2533 372.035 89.302 372.035 90.498C372.035 92.11 371.645 93.5833 370.865 94.918C370.085 96.2527 369.027 97.31 367.693 98.09C366.358 98.8527 364.876 99.234 363.247 99.234ZM363.611 96.738C364.599 96.738 365.5 96.4607 366.315 95.906C367.147 95.334 367.797 94.5887 368.265 93.67C368.733 92.734 368.967 91.7373 368.967 90.68C368.967 89.484 368.629 88.5653 367.953 87.924C367.277 87.2653 366.427 86.936 365.405 86.936C364.399 86.936 363.498 87.222 362.701 87.794C361.921 88.3487 361.305 89.1027 360.855 90.056C360.421 90.992 360.205 91.9973 360.205 93.072C360.205 94.2333 360.517 95.1347 361.141 95.776C361.782 96.4173 362.605 96.738 363.611 96.738ZM386.634 99.234C385.646 99.234 384.744 99.0693 383.93 98.74C383.115 98.3933 382.474 97.9167 382.006 97.31C381.538 96.686 381.304 95.9753 381.304 95.178C381.304 95.0393 381.321 94.8487 381.356 94.606H384.242C384.172 95.2647 384.372 95.8107 384.84 96.244C385.308 96.6773 385.966 96.894 386.816 96.894C387.648 96.894 388.332 96.7467 388.87 96.452C389.407 96.1573 389.676 95.724 389.676 95.152C389.676 94.6667 389.45 94.2767 389 93.982C388.566 93.6873 387.864 93.358 386.894 92.994C385.975 92.63 385.23 92.292 384.658 91.98C384.086 91.668 383.592 91.2433 383.176 90.706C382.76 90.1513 382.552 89.4667 382.552 88.652C382.552 87.82 382.786 87.092 383.254 86.468C383.739 85.8267 384.406 85.3327 385.256 84.986C386.122 84.622 387.11 84.44 388.22 84.44C389.225 84.44 390.118 84.6133 390.898 84.96C391.695 85.2893 392.31 85.766 392.744 86.39C393.194 86.9967 393.42 87.6987 393.42 88.496C393.42 88.7387 393.411 88.9207 393.394 89.042H390.586C390.655 88.366 390.456 87.82 389.988 87.404C389.537 86.988 388.887 86.78 388.038 86.78C387.292 86.78 386.686 86.936 386.218 87.248C385.767 87.56 385.542 87.9847 385.542 88.522C385.542 89.0593 385.776 89.4927 386.244 89.822C386.712 90.134 387.431 90.4807 388.402 90.862C389.286 91.2087 390.005 91.538 390.56 91.85C391.114 92.162 391.591 92.578 391.99 93.098C392.388 93.618 392.588 94.268 392.588 95.048C392.588 95.8973 392.328 96.6427 391.808 97.284C391.305 97.908 390.603 98.3933 389.702 98.74C388.8 99.0693 387.778 99.234 386.634 99.234ZM401.614 79.76L398.208 99H395.244L398.65 79.76H401.614ZM410.836 84.44C412.621 84.44 414.043 84.9427 415.1 85.948C416.175 86.9533 416.712 88.3053 416.712 90.004C416.712 90.4027 416.669 90.8793 416.582 91.434C416.513 91.8153 416.391 92.2833 416.218 92.838H405.272C405.255 92.9593 405.246 93.1413 405.246 93.384C405.246 94.4067 405.558 95.2213 406.182 95.828C406.823 96.4347 407.655 96.738 408.678 96.738C410.29 96.738 411.529 96.0707 412.396 94.736H415.594C414.935 96.0533 413.965 97.1367 412.682 97.986C411.399 98.818 409.917 99.234 408.236 99.234C407.04 99.234 405.991 99 405.09 98.532C404.189 98.064 403.487 97.3967 402.984 96.53C402.481 95.646 402.23 94.6147 402.23 93.436C402.23 92.9333 402.282 92.396 402.386 91.824C402.646 90.3507 403.175 89.0593 403.972 87.95C404.769 86.8233 405.757 85.9567 406.936 85.35C408.132 84.7433 409.432 84.44 410.836 84.44ZM413.618 90.706C413.653 90.394 413.67 90.1687 413.67 90.03C413.67 89.0767 413.349 88.3227 412.708 87.768C412.084 87.2133 411.269 86.936 410.264 86.936C409.207 86.936 408.253 87.274 407.404 87.95C406.555 88.626 405.974 89.5447 405.662 90.706H413.618ZM426.883 84.44C428.668 84.44 430.089 84.9427 431.147 85.948C432.221 86.9533 432.759 88.3053 432.759 90.004C432.759 90.4027 432.715 90.8793 432.629 91.434C432.559 91.8153 432.438 92.2833 432.265 92.838H421.319C421.301 92.9593 421.293 93.1413 421.293 93.384C421.293 94.4067 421.605 95.2213 422.229 95.828C422.87 96.4347 423.702 96.738 424.725 96.738C426.337 96.738 427.576 96.0707 428.443 94.736H431.641C430.982 96.0533 430.011 97.1367 428.729 97.986C427.446 98.818 425.964 99.234 424.283 99.234C423.087 99.234 422.038 99 421.137 98.532C420.235 98.064 419.533 97.3967 419.031 96.53C418.528 95.646 418.277 94.6147 418.277 93.436C418.277 92.9333 418.329 92.396 418.433 91.824C418.693 90.3507 419.221 89.0593 420.019 87.95C420.816 86.8233 421.804 85.9567 422.983 85.35C424.179 84.7433 425.479 84.44 426.883 84.44ZM429.665 90.706C429.699 90.394 429.717 90.1687 429.717 90.03C429.717 89.0767 429.396 88.3227 428.755 87.768C428.131 87.2133 427.316 86.936 426.311 86.936C425.253 86.936 424.3 87.274 423.451 87.95C422.601 88.626 422.021 89.5447 421.709 90.706H429.665ZM439.316 86.78C439.94 86.1213 440.72 85.5667 441.656 85.116C442.609 84.6653 443.632 84.44 444.724 84.44C445.816 84.44 446.786 84.674 447.636 85.142C448.485 85.61 449.144 86.2773 449.612 87.144C450.08 88.0107 450.314 89.0247 450.314 90.186C450.314 90.6887 450.262 91.2173 450.158 91.772C449.898 93.2107 449.369 94.502 448.572 95.646C447.792 96.7727 446.83 97.6567 445.686 98.298C444.559 98.922 443.372 99.234 442.124 99.234C441.032 99.234 440.096 99.0173 439.316 98.584C438.553 98.1333 437.955 97.5787 437.522 96.92L435.962 105.812H432.998L436.716 84.674H439.68L439.316 86.78ZM447.142 91.772C447.211 91.4427 447.246 91.0873 447.246 90.706C447.246 89.5447 446.899 88.6433 446.206 88.002C445.53 87.3433 444.672 87.014 443.632 87.014C442.886 87.014 442.141 87.2047 441.396 87.586C440.668 87.9673 440.035 88.522 439.498 89.25C438.96 89.978 438.605 90.836 438.432 91.824C438.362 92.1533 438.328 92.5087 438.328 92.89C438.328 94.0513 438.666 94.97 439.342 95.646C440.035 96.322 440.893 96.66 441.916 96.66C442.678 96.66 443.424 96.4693 444.152 96.088C444.897 95.6893 445.538 95.1173 446.076 94.372C446.613 93.6267 446.968 92.76 447.142 91.772ZM455.689 95.438L451.295 102.614H449.371L452.465 95.438H455.689ZM17.186 119.93L9.178 131.448L8.008 138H5.044L6.214 131.448L2.236 119.93H5.538L8.138 128.744L13.858 119.93H17.186ZM25.0762 123.44C26.8615 123.44 28.2829 123.943 29.3402 124.948C30.4149 125.953 30.9522 127.305 30.9522 129.004C30.9522 129.403 30.9089 129.879 30.8222 130.434C30.7529 130.815 30.6315 131.283 30.4582 131.838H19.5122C19.4949 131.959 19.4862 132.141 19.4862 132.384C19.4862 133.407 19.7982 134.221 20.4222 134.828C21.0635 135.435 21.8955 135.738 22.9182 135.738C24.5302 135.738 25.7695 135.071 26.6362 133.736H29.8342C29.1755 135.053 28.2049 136.137 26.9222 136.986C25.6395 137.818 24.1575 138.234 22.4762 138.234C21.2802 138.234 20.2315 138 19.3302 137.532C18.4289 137.064 17.7269 136.397 17.2242 135.53C16.7215 134.646 16.4702 133.615 16.4702 132.436C16.4702 131.933 16.5222 131.396 16.6262 130.824C16.8862 129.351 17.4149 128.059 18.2122 126.95C19.0095 125.823 19.9975 124.957 21.1762 124.35C22.3722 123.743 23.6722 123.44 25.0762 123.44ZM27.8582 129.706C27.8929 129.394 27.9102 129.169 27.9102 129.03C27.9102 128.077 27.5895 127.323 26.9482 126.768C26.3242 126.213 25.5095 125.936 24.5042 125.936C23.4469 125.936 22.4935 126.274 21.6442 126.95C20.7949 127.626 20.2142 128.545 19.9022 129.706H27.8582ZM36.5471 134.022C36.5124 134.265 36.4951 134.421 36.4951 134.49C36.4951 134.854 36.6077 135.123 36.8331 135.296C37.0584 135.452 37.4311 135.53 37.9511 135.53H39.7711L39.3291 138H36.9891C35.8451 138 34.9697 137.775 34.3631 137.324C33.7564 136.856 33.4531 136.119 33.4531 135.114C33.4531 134.733 33.4877 134.369 33.5571 134.022L34.9611 126.092H33.2711L33.6871 123.674H35.4031L36.0271 120.112H39.0171L38.3931 123.674H41.8511L41.4351 126.092H37.9511L36.5471 134.022ZM54.0158 134.022C53.9811 134.265 53.9638 134.421 53.9638 134.49C53.9638 134.854 54.0765 135.123 54.3018 135.296C54.5271 135.452 54.8998 135.53 55.4198 135.53H57.2398L56.7978 138H54.4578C53.3138 138 52.4385 137.775 51.8318 137.324C51.2251 136.856 50.9218 136.119 50.9218 135.114C50.9218 134.733 50.9565 134.369 51.0258 134.022L52.4298 126.092H50.7398L51.1558 123.674H52.8718L53.4958 120.112H56.4858L55.8618 123.674H59.3198L58.9038 126.092H55.4198L54.0158 134.022ZM63.8976 121.776C63.4296 121.776 63.0483 121.629 62.7536 121.334C62.459 121.039 62.3116 120.667 62.3116 120.216C62.3116 119.609 62.537 119.089 62.9876 118.656C63.4556 118.205 63.9843 117.98 64.5736 117.98C65.0416 117.98 65.4143 118.127 65.6916 118.422C65.9863 118.717 66.1336 119.089 66.1336 119.54C66.1336 120.147 65.9083 120.675 65.4576 121.126C65.007 121.559 64.487 121.776 63.8976 121.776ZM65.0156 123.674L62.4936 138H59.5296L62.0516 123.674H65.0156ZM86.3011 123.44C87.8091 123.44 89.0138 123.847 89.9151 124.662C90.8164 125.477 91.2671 126.629 91.2671 128.12C91.2671 128.519 91.2238 128.995 91.1371 129.55L89.6291 138H86.6911L88.1211 129.992C88.1904 129.507 88.2251 129.16 88.2251 128.952C88.2251 127.999 87.9564 127.271 87.4191 126.768C86.8991 126.265 86.1711 126.014 85.2351 126.014C84.1084 126.014 83.1551 126.361 82.3751 127.054C81.6124 127.73 81.1271 128.709 80.9191 129.992L79.4891 138H76.5511L77.9811 129.992C78.0504 129.507 78.0851 129.16 78.0851 128.952C78.0851 127.999 77.8164 127.271 77.2791 126.768C76.7591 126.265 76.0311 126.014 75.0951 126.014C73.9684 126.014 73.0151 126.361 72.2351 127.054C71.4724 127.73 70.9871 128.709 70.7791 129.992V129.914L69.3491 138H66.3851L68.9071 123.674H71.8711L71.5851 125.338C72.1571 124.749 72.8418 124.289 73.6391 123.96C74.4538 123.613 75.2944 123.44 76.1611 123.44C77.3051 123.44 78.2844 123.683 79.0991 124.168C79.9311 124.653 80.5118 125.355 80.8411 126.274C81.4131 125.407 82.2018 124.723 83.2071 124.22C84.2124 123.7 85.2438 123.44 86.3011 123.44ZM102.137 123.44C103.922 123.44 105.343 123.943 106.401 124.948C107.475 125.953 108.013 127.305 108.013 129.004C108.013 129.403 107.969 129.879 107.883 130.434C107.813 130.815 107.692 131.283 107.519 131.838H96.5727C96.5554 131.959 96.5467 132.141 96.5467 132.384C96.5467 133.407 96.8587 134.221 97.4827 134.828C98.1241 135.435 98.9561 135.738 99.9787 135.738C101.591 135.738 102.83 135.071 103.697 133.736H106.895C106.236 135.053 105.265 136.137 103.983 136.986C102.7 137.818 101.218 138.234 99.5367 138.234C98.3407 138.234 97.2921 138 96.3907 137.532C95.4894 137.064 94.7874 136.397 94.2847 135.53C93.7821 134.646 93.5307 133.615 93.5307 132.436C93.5307 131.933 93.5827 131.396 93.6867 130.824C93.9467 129.351 94.4754 128.059 95.2727 126.95C96.0701 125.823 97.0581 124.957 98.2367 124.35C99.4327 123.743 100.733 123.44 102.137 123.44ZM104.919 129.706C104.953 129.394 104.971 129.169 104.971 129.03C104.971 128.077 104.65 127.323 104.009 126.768C103.385 126.213 102.57 125.936 101.565 125.936C100.507 125.936 99.5541 126.274 98.7047 126.95C97.8554 127.626 97.2747 128.545 96.9627 129.706H104.919ZM117.529 130.772C117.789 129.333 118.309 128.059 119.089 126.95C119.886 125.841 120.857 124.983 122.001 124.376C123.145 123.752 124.349 123.44 125.615 123.44C126.551 123.44 127.435 123.648 128.267 124.064C129.099 124.463 129.731 125 130.165 125.676L131.387 118.76H134.377L130.971 138H127.981L128.371 135.842C127.747 136.553 126.967 137.133 126.031 137.584C125.112 138.017 124.098 138.234 122.989 138.234C121.897 138.234 120.926 137.991 120.077 137.506C119.227 137.021 118.56 136.336 118.075 135.452C117.607 134.551 117.373 133.519 117.373 132.358C117.373 131.838 117.425 131.309 117.529 130.772ZM129.255 130.824C129.324 130.495 129.359 130.139 129.359 129.758C129.359 128.597 129.012 127.687 128.319 127.028C127.643 126.352 126.793 126.014 125.771 126.014C125.008 126.014 124.263 126.205 123.535 126.586C122.807 126.95 122.174 127.496 121.637 128.224C121.099 128.935 120.744 129.784 120.571 130.772C120.501 131.101 120.467 131.457 120.467 131.838C120.467 133.017 120.805 133.953 121.481 134.646C122.174 135.322 123.032 135.66 124.055 135.66C124.817 135.66 125.563 135.469 126.291 135.088C127.019 134.707 127.651 134.152 128.189 133.424C128.726 132.679 129.081 131.812 129.255 130.824ZM141.13 138.234C139.916 138.234 138.85 137.983 137.932 137.48C137.013 136.977 136.294 136.267 135.774 135.348C135.271 134.429 135.02 133.381 135.02 132.202C135.02 130.59 135.392 129.117 136.138 127.782C136.9 126.447 137.94 125.39 139.258 124.61C140.592 123.83 142.074 123.44 143.704 123.44C144.917 123.44 145.992 123.7 146.928 124.22C147.864 124.723 148.592 125.433 149.112 126.352C149.649 127.253 149.918 128.302 149.918 129.498C149.918 131.11 149.528 132.583 148.748 133.918C147.968 135.253 146.91 136.31 145.576 137.09C144.241 137.853 142.759 138.234 141.13 138.234ZM141.494 135.738C142.482 135.738 143.383 135.461 144.198 134.906C145.03 134.334 145.68 133.589 146.148 132.67C146.616 131.734 146.85 130.737 146.85 129.68C146.85 128.484 146.512 127.565 145.836 126.924C145.16 126.265 144.31 125.936 143.288 125.936C142.282 125.936 141.381 126.222 140.584 126.794C139.804 127.349 139.188 128.103 138.738 129.056C138.304 129.992 138.088 130.997 138.088 132.072C138.088 133.233 138.4 134.135 139.024 134.776C139.665 135.417 140.488 135.738 141.494 135.738ZM155.604 134.022C155.569 134.265 155.552 134.421 155.552 134.49C155.552 134.854 155.664 135.123 155.89 135.296C156.115 135.452 156.488 135.53 157.008 135.53H158.828L158.386 138H156.046C154.902 138 154.026 137.775 153.42 137.324C152.813 136.856 152.51 136.119 152.51 135.114C152.51 134.733 152.544 134.369 152.614 134.022L154.018 126.092H152.328L152.744 123.674H154.46L155.084 120.112H158.074L157.45 123.674H160.908L160.492 126.092H157.008L155.604 134.022ZM171.102 123.44C172.54 123.44 173.693 123.847 174.56 124.662C175.426 125.459 175.86 126.603 175.86 128.094C175.86 128.493 175.816 128.978 175.73 129.55L174.222 138H171.284L172.714 129.992C172.783 129.507 172.818 129.16 172.818 128.952C172.818 127.999 172.549 127.271 172.012 126.768C171.492 126.265 170.764 126.014 169.828 126.014C168.701 126.014 167.748 126.361 166.968 127.054C166.205 127.73 165.72 128.709 165.512 129.992V129.94L164.082 138H161.118L164.524 118.76H167.488L166.318 125.338C166.924 124.731 167.644 124.263 168.476 123.934C169.308 123.605 170.183 123.44 171.102 123.44ZM207.559 123.674L200.591 138H197.471L196.483 127.418L191.699 138H188.579L186.629 123.674H189.645L190.633 135.192L195.677 123.674H198.771L199.681 135.14L204.647 123.674H207.559ZM207.538 130.772C207.798 129.333 208.318 128.059 209.098 126.95C209.896 125.841 210.866 124.983 212.01 124.376C213.154 123.752 214.35 123.44 215.598 123.44C216.725 123.44 217.67 123.665 218.432 124.116C219.195 124.549 219.767 125.095 220.148 125.754L220.512 123.674H223.502L220.98 138H217.99L218.38 135.868C217.756 136.544 216.968 137.107 216.014 137.558C215.078 138.009 214.056 138.234 212.946 138.234C211.872 138.234 210.91 137.991 210.06 137.506C209.228 137.021 208.57 136.336 208.084 135.452C207.616 134.551 207.382 133.519 207.382 132.358C207.382 131.838 207.434 131.309 207.538 130.772ZM219.264 130.824C219.334 130.495 219.368 130.139 219.368 129.758C219.368 128.597 219.022 127.687 218.328 127.028C217.652 126.352 216.803 126.014 215.78 126.014C215.018 126.014 214.272 126.205 213.544 126.586C212.816 126.95 212.184 127.496 211.646 128.224C211.109 128.935 210.754 129.784 210.58 130.772C210.511 131.101 210.476 131.457 210.476 131.838C210.476 133.017 210.814 133.953 211.49 134.646C212.184 135.322 213.042 135.66 214.064 135.66C214.827 135.66 215.572 135.469 216.3 135.088C217.028 134.707 217.661 134.152 218.198 133.424C218.736 132.679 219.091 131.812 219.264 130.824ZM229.241 121.776C228.773 121.776 228.392 121.629 228.097 121.334C227.803 121.039 227.655 120.667 227.655 120.216C227.655 119.609 227.881 119.089 228.331 118.656C228.799 118.205 229.328 117.98 229.917 117.98C230.385 117.98 230.758 118.127 231.035 118.422C231.33 118.717 231.477 119.089 231.477 119.54C231.477 120.147 231.252 120.675 230.801 121.126C230.351 121.559 229.831 121.776 229.241 121.776ZM230.359 123.674L227.837 138H224.873L227.395 123.674H230.359ZM235.889 134.022C235.854 134.265 235.837 134.421 235.837 134.49C235.837 134.854 235.95 135.123 236.175 135.296C236.4 135.452 236.773 135.53 237.293 135.53H239.113L238.671 138H236.331C235.187 138 234.312 137.775 233.705 137.324C233.098 136.856 232.795 136.119 232.795 135.114C232.795 134.733 232.83 134.369 232.899 134.022L234.303 126.092H232.613L233.029 123.674H234.745L235.369 120.112H238.359L237.735 123.674H241.193L240.777 126.092H237.293L235.889 134.022ZM257.934 123.44C259.719 123.44 261.14 123.943 262.198 124.948C263.272 125.953 263.81 127.305 263.81 129.004C263.81 129.403 263.766 129.879 263.68 130.434C263.61 130.815 263.489 131.283 263.316 131.838H252.37C252.352 131.959 252.344 132.141 252.344 132.384C252.344 133.407 252.656 134.221 253.28 134.828C253.921 135.435 254.753 135.738 255.776 135.738C257.388 135.738 258.627 135.071 259.494 133.736H262.692C262.033 135.053 261.062 136.137 259.78 136.986C258.497 137.818 257.015 138.234 255.334 138.234C254.138 138.234 253.089 138 252.188 137.532C251.286 137.064 250.584 136.397 250.082 135.53C249.579 134.646 249.328 133.615 249.328 132.436C249.328 131.933 249.38 131.396 249.484 130.824C249.744 129.351 250.272 128.059 251.07 126.95C251.867 125.823 252.855 124.957 254.034 124.35C255.23 123.743 256.53 123.44 257.934 123.44ZM260.716 129.706C260.75 129.394 260.768 129.169 260.768 129.03C260.768 128.077 260.447 127.323 259.806 126.768C259.182 126.213 258.367 125.936 257.362 125.936C256.304 125.936 255.351 126.274 254.502 126.95C253.652 127.626 253.072 128.545 252.76 129.706H260.716ZM270.288 126.196C270.878 125.329 271.571 124.653 272.368 124.168C273.183 123.683 274.084 123.44 275.072 123.44L274.526 126.508H273.772C272.628 126.508 271.71 126.794 271.016 127.366C270.323 127.938 269.838 128.926 269.56 130.33L268.208 138H265.244L267.766 123.674H270.73L270.288 126.196ZM283.959 123.44C285.744 123.44 287.166 123.943 288.223 124.948C289.298 125.953 289.835 127.305 289.835 129.004C289.835 129.403 289.792 129.879 289.705 130.434C289.636 130.815 289.514 131.283 289.341 131.838H278.395C278.378 131.959 278.369 132.141 278.369 132.384C278.369 133.407 278.681 134.221 279.305 134.828C279.946 135.435 280.778 135.738 281.801 135.738C283.413 135.738 284.652 135.071 285.519 133.736H288.717C288.058 135.053 287.088 136.137 285.805 136.986C284.522 137.818 283.04 138.234 281.359 138.234C280.163 138.234 279.114 138 278.213 137.532C277.312 137.064 276.61 136.397 276.107 135.53C275.604 134.646 275.353 133.615 275.353 132.436C275.353 131.933 275.405 131.396 275.509 130.824C275.769 129.351 276.298 128.059 277.095 126.95C277.892 125.823 278.88 124.957 280.059 124.35C281.255 123.743 282.555 123.44 283.959 123.44ZM286.741 129.706C286.776 129.394 286.793 129.169 286.793 129.03C286.793 128.077 286.472 127.323 285.831 126.768C285.207 126.213 284.392 125.936 283.387 125.936C282.33 125.936 281.376 126.274 280.527 126.95C279.678 127.626 279.097 128.545 278.785 129.706H286.741ZM304.343 138.234C303.355 138.234 302.453 138.069 301.639 137.74C300.824 137.393 300.183 136.917 299.715 136.31C299.247 135.686 299.013 134.975 299.013 134.178C299.013 134.039 299.03 133.849 299.065 133.606H301.951C301.881 134.265 302.081 134.811 302.549 135.244C303.017 135.677 303.675 135.894 304.525 135.894C305.357 135.894 306.041 135.747 306.579 135.452C307.116 135.157 307.385 134.724 307.385 134.152C307.385 133.667 307.159 133.277 306.709 132.982C306.275 132.687 305.573 132.358 304.603 131.994C303.684 131.63 302.939 131.292 302.367 130.98C301.795 130.668 301.301 130.243 300.885 129.706C300.469 129.151 300.261 128.467 300.261 127.652C300.261 126.82 300.495 126.092 300.963 125.468C301.448 124.827 302.115 124.333 302.965 123.986C303.831 123.622 304.819 123.44 305.929 123.44C306.934 123.44 307.827 123.613 308.607 123.96C309.404 124.289 310.019 124.766 310.453 125.39C310.903 125.997 311.129 126.699 311.129 127.496C311.129 127.739 311.12 127.921 311.103 128.042H308.295C308.364 127.366 308.165 126.82 307.697 126.404C307.246 125.988 306.596 125.78 305.747 125.78C305.001 125.78 304.395 125.936 303.927 126.248C303.476 126.56 303.251 126.985 303.251 127.522C303.251 128.059 303.485 128.493 303.953 128.822C304.421 129.134 305.14 129.481 306.111 129.862C306.995 130.209 307.714 130.538 308.269 130.85C308.823 131.162 309.3 131.578 309.699 132.098C310.097 132.618 310.297 133.268 310.297 134.048C310.297 134.897 310.037 135.643 309.517 136.284C309.014 136.908 308.312 137.393 307.411 137.74C306.509 138.069 305.487 138.234 304.343 138.234ZM322.937 123.44C324.376 123.44 325.529 123.847 326.395 124.662C327.262 125.459 327.695 126.603 327.695 128.094C327.695 128.493 327.652 128.978 327.565 129.55L326.057 138H323.119L324.549 129.992C324.619 129.507 324.653 129.16 324.653 128.952C324.653 127.999 324.385 127.271 323.847 126.768C323.327 126.265 322.599 126.014 321.663 126.014C320.537 126.014 319.583 126.361 318.803 127.054C318.041 127.73 317.555 128.709 317.347 129.992V129.94L315.917 138H312.953L316.359 118.76H319.323L318.153 125.338C318.76 124.731 319.479 124.263 320.311 123.934C321.143 123.605 322.019 123.44 322.937 123.44ZM330.124 130.772C330.384 129.333 330.904 128.059 331.684 126.95C332.482 125.841 333.452 124.983 334.596 124.376C335.74 123.752 336.936 123.44 338.184 123.44C339.311 123.44 340.256 123.665 341.018 124.116C341.781 124.549 342.353 125.095 342.734 125.754L343.098 123.674H346.088L343.566 138H340.576L340.966 135.868C340.342 136.544 339.554 137.107 338.6 137.558C337.664 138.009 336.642 138.234 335.532 138.234C334.458 138.234 333.496 137.991 332.646 137.506C331.814 137.021 331.156 136.336 330.67 135.452C330.202 134.551 329.968 133.519 329.968 132.358C329.968 131.838 330.02 131.309 330.124 130.772ZM341.85 130.824C341.92 130.495 341.954 130.139 341.954 129.758C341.954 128.597 341.608 127.687 340.914 127.028C340.238 126.352 339.389 126.014 338.366 126.014C337.604 126.014 336.858 126.205 336.13 126.586C335.402 126.95 334.77 127.496 334.232 128.224C333.695 128.935 333.34 129.784 333.166 130.772C333.097 131.101 333.062 131.457 333.062 131.838C333.062 133.017 333.4 133.953 334.076 134.646C334.77 135.322 335.628 135.66 336.65 135.66C337.413 135.66 338.158 135.469 338.886 135.088C339.614 134.707 340.247 134.152 340.784 133.424C341.322 132.679 341.677 131.812 341.85 130.824ZM347.745 130.772C348.005 129.333 348.525 128.059 349.305 126.95C350.103 125.841 351.073 124.983 352.217 124.376C353.361 123.752 354.566 123.44 355.831 123.44C356.767 123.44 357.651 123.648 358.483 124.064C359.315 124.463 359.948 125 360.381 125.676L361.603 118.76H364.593L361.187 138H358.197L358.587 135.842C357.963 136.553 357.183 137.133 356.247 137.584C355.329 138.017 354.315 138.234 353.205 138.234C352.113 138.234 351.143 137.991 350.293 137.506C349.444 137.021 348.777 136.336 348.291 135.452C347.823 134.551 347.589 133.519 347.589 132.358C347.589 131.838 347.641 131.309 347.745 130.772ZM359.471 130.824C359.541 130.495 359.575 130.139 359.575 129.758C359.575 128.597 359.229 127.687 358.535 127.028C357.859 126.352 357.01 126.014 355.987 126.014C355.225 126.014 354.479 126.205 353.751 126.586C353.023 126.95 352.391 127.496 351.853 128.224C351.316 128.935 350.961 129.784 350.787 130.772C350.718 131.101 350.683 131.457 350.683 131.838C350.683 133.017 351.021 133.953 351.697 134.646C352.391 135.322 353.249 135.66 354.271 135.66C355.034 135.66 355.779 135.469 356.507 135.088C357.235 134.707 357.868 134.152 358.405 133.424C358.943 132.679 359.298 131.812 359.471 130.824ZM371.346 138.234C370.133 138.234 369.067 137.983 368.148 137.48C367.23 136.977 366.51 136.267 365.99 135.348C365.488 134.429 365.236 133.381 365.236 132.202C365.236 130.59 365.609 129.117 366.354 127.782C367.117 126.447 368.157 125.39 369.474 124.61C370.809 123.83 372.291 123.44 373.92 123.44C375.134 123.44 376.208 123.7 377.144 124.22C378.08 124.723 378.808 125.433 379.328 126.352C379.866 127.253 380.134 128.302 380.134 129.498C380.134 131.11 379.744 132.583 378.964 133.918C378.184 135.253 377.127 136.31 375.792 137.09C374.458 137.853 372.976 138.234 371.346 138.234ZM371.71 135.738C372.698 135.738 373.6 135.461 374.414 134.906C375.246 134.334 375.896 133.589 376.364 132.67C376.832 131.734 377.066 130.737 377.066 129.68C377.066 128.484 376.728 127.565 376.052 126.924C375.376 126.265 374.527 125.936 373.504 125.936C372.499 125.936 371.598 126.222 370.8 126.794C370.02 127.349 369.405 128.103 368.954 129.056C368.521 129.992 368.304 130.997 368.304 132.072C368.304 133.233 368.616 134.135 369.24 134.776C369.882 135.417 370.705 135.738 371.71 135.738ZM403.423 123.674L396.455 138H393.335L392.347 127.418L387.562 138H384.443L382.493 123.674H385.509L386.497 135.192L391.541 123.674H394.635L395.545 135.14L400.511 123.674H403.423ZM408.394 138.234C407.406 138.234 406.504 138.069 405.69 137.74C404.875 137.393 404.234 136.917 403.766 136.31C403.298 135.686 403.064 134.975 403.064 134.178C403.064 134.039 403.081 133.849 403.116 133.606H406.002C405.932 134.265 406.132 134.811 406.6 135.244C407.068 135.677 407.726 135.894 408.576 135.894C409.408 135.894 410.092 135.747 410.63 135.452C411.167 135.157 411.436 134.724 411.436 134.152C411.436 133.667 411.21 133.277 410.76 132.982C410.326 132.687 409.624 132.358 408.654 131.994C407.735 131.63 406.99 131.292 406.418 130.98C405.846 130.668 405.352 130.243 404.936 129.706C404.52 129.151 404.312 128.467 404.312 127.652C404.312 126.82 404.546 126.092 405.014 125.468C405.499 124.827 406.166 124.333 407.016 123.986C407.882 123.622 408.87 123.44 409.98 123.44C410.985 123.44 411.878 123.613 412.658 123.96C413.455 124.289 414.07 124.766 414.504 125.39C414.954 125.997 415.18 126.699 415.18 127.496C415.18 127.739 415.171 127.921 415.154 128.042H412.346C412.415 127.366 412.216 126.82 411.748 126.404C411.297 125.988 410.647 125.78 409.798 125.78C409.052 125.78 408.446 125.936 407.978 126.248C407.527 126.56 407.302 126.985 407.302 127.522C407.302 128.059 407.536 128.493 408.004 128.822C408.472 129.134 409.191 129.481 410.162 129.862C411.046 130.209 411.765 130.538 412.32 130.85C412.874 131.162 413.351 131.578 413.75 132.098C414.148 132.618 414.348 133.268 414.348 134.048C414.348 134.897 414.088 135.643 413.568 136.284C413.065 136.908 412.363 137.393 411.462 137.74C410.56 138.069 409.538 138.234 408.394 138.234ZM425.085 130.824C425.345 129.351 425.865 128.059 426.645 126.95C427.443 125.823 428.422 124.957 429.583 124.35C430.762 123.743 432.036 123.44 433.405 123.44C435.139 123.44 436.499 123.856 437.487 124.688C438.475 125.503 439.039 126.673 439.177 128.198H435.979C435.841 127.487 435.52 126.933 435.017 126.534C434.515 126.135 433.83 125.936 432.963 125.936C431.75 125.936 430.71 126.369 429.843 127.236C428.977 128.085 428.405 129.281 428.127 130.824C428.041 131.379 427.997 131.829 427.997 132.176C427.997 133.32 428.283 134.204 428.855 134.828C429.427 135.435 430.225 135.738 431.247 135.738C432.963 135.738 434.229 134.984 435.043 133.476H438.241C437.565 134.932 436.577 136.093 435.277 136.96C433.995 137.809 432.504 138.234 430.805 138.234C429.003 138.234 427.573 137.723 426.515 136.7C425.458 135.66 424.929 134.256 424.929 132.488C424.929 131.951 424.981 131.396 425.085 130.824ZM445.433 126.196C446.022 125.329 446.716 124.653 447.513 124.168C448.328 123.683 449.229 123.44 450.217 123.44L449.671 126.508H448.917C447.773 126.508 446.854 126.794 446.161 127.366C445.468 127.938 444.982 128.926 444.705 130.33L443.353 138H440.389L442.911 123.674H445.875L445.433 126.196ZM459.104 123.44C460.889 123.44 462.31 123.943 463.368 124.948C464.442 125.953 464.98 127.305 464.98 129.004C464.98 129.403 464.936 129.879 464.85 130.434C464.78 130.815 464.659 131.283 464.486 131.838H453.54C453.522 131.959 453.514 132.141 453.514 132.384C453.514 133.407 453.826 134.221 454.45 134.828C455.091 135.435 455.923 135.738 456.946 135.738C458.558 135.738 459.797 135.071 460.664 133.736H463.862C463.203 135.053 462.232 136.137 460.95 136.986C459.667 137.818 458.185 138.234 456.504 138.234C455.308 138.234 454.259 138 453.358 137.532C452.456 137.064 451.754 136.397 451.252 135.53C450.749 134.646 450.498 133.615 450.498 132.436C450.498 131.933 450.55 131.396 450.654 130.824C450.914 129.351 451.442 128.059 452.24 126.95C453.037 125.823 454.025 124.957 455.204 124.35C456.4 123.743 457.7 123.44 459.104 123.44ZM461.886 129.706C461.92 129.394 461.938 129.169 461.938 129.03C461.938 128.077 461.617 127.323 460.976 126.768C460.352 126.213 459.537 125.936 458.532 125.936C457.474 125.936 456.521 126.274 455.672 126.95C454.822 127.626 454.242 128.545 453.93 129.706H461.886ZM475.15 123.44C476.936 123.44 478.357 123.943 479.414 124.948C480.489 125.953 481.026 127.305 481.026 129.004C481.026 129.403 480.983 129.879 480.896 130.434C480.827 130.815 480.706 131.283 480.532 131.838H469.586C469.569 131.959 469.56 132.141 469.56 132.384C469.56 133.407 469.872 134.221 470.496 134.828C471.138 135.435 471.97 135.738 472.992 135.738C474.604 135.738 475.844 135.071 476.71 133.736H479.908C479.25 135.053 478.279 136.137 476.996 136.986C475.714 137.818 474.232 138.234 472.55 138.234C471.354 138.234 470.306 138 469.404 137.532C468.503 137.064 467.801 136.397 467.298 135.53C466.796 134.646 466.544 133.615 466.544 132.436C466.544 131.933 466.596 131.396 466.7 130.824C466.96 129.351 467.489 128.059 468.286 126.95C469.084 125.823 470.072 124.957 471.25 124.35C472.446 123.743 473.746 123.44 475.15 123.44ZM477.932 129.706C477.967 129.394 477.984 129.169 477.984 129.03C477.984 128.077 477.664 127.323 477.022 126.768C476.398 126.213 475.584 125.936 474.578 125.936C473.521 125.936 472.568 126.274 471.718 126.95C470.869 127.626 470.288 128.545 469.976 129.706H477.932ZM487.583 125.78C488.207 125.121 488.987 124.567 489.923 124.116C490.877 123.665 491.899 123.44 492.991 123.44C494.083 123.44 495.054 123.674 495.903 124.142C496.753 124.61 497.411 125.277 497.879 126.144C498.347 127.011 498.581 128.025 498.581 129.186C498.581 129.689 498.529 130.217 498.425 130.772C498.165 132.211 497.637 133.502 496.839 134.646C496.059 135.773 495.097 136.657 493.953 137.298C492.827 137.922 491.639 138.234 490.391 138.234C489.299 138.234 488.363 138.017 487.583 137.584C486.821 137.133 486.223 136.579 485.789 135.92L484.229 144.812H481.265L484.983 123.674H487.947L487.583 125.78ZM495.409 130.772C495.479 130.443 495.513 130.087 495.513 129.706C495.513 128.545 495.167 127.643 494.473 127.002C493.797 126.343 492.939 126.014 491.899 126.014C491.154 126.014 490.409 126.205 489.663 126.586C488.935 126.967 488.303 127.522 487.765 128.25C487.228 128.978 486.873 129.836 486.699 130.824C486.63 131.153 486.595 131.509 486.595 131.89C486.595 133.051 486.933 133.97 487.609 134.646C488.303 135.322 489.161 135.66 490.183 135.66C490.946 135.66 491.691 135.469 492.419 135.088C493.165 134.689 493.806 134.117 494.343 133.372C494.881 132.627 495.236 131.76 495.409 130.772ZM501.252 138.182C500.784 138.182 500.403 138.035 500.108 137.74C499.814 137.445 499.666 137.073 499.666 136.622C499.666 136.015 499.892 135.495 500.342 135.062C500.81 134.611 501.339 134.386 501.928 134.386C502.396 134.386 502.769 134.533 503.046 134.828C503.341 135.123 503.488 135.495 503.488 135.946C503.488 136.553 503.263 137.081 502.812 137.532C502.362 137.965 501.842 138.182 501.252 138.182Z" fill="white"/>
</svg>
